<svg width="824" height="186" viewBox="0 0 824 186" fill="none" xmlns="http://www.w3.org/2000/svg">
<g clip-path="url(#clip0_9_2)">
<path d="M227.661 85.4238C219.06 82.9228 212.79 79.7967 208.851 76.0453C204.977 72.2281 203.04 67.5882 203.04 62.1257C203.04 56.0708 205.305 51.2335 209.836 47.6138C214.366 43.9282 220.636 42.0854 228.646 42.0854C234.621 42.0854 240.53 43.0068 246.373 44.8496C247.949 45.3103 249.065 46.2646 249.722 47.7125C250.378 49.1604 250.477 50.707 250.017 52.3523C249.689 53.8002 248.835 54.8533 247.456 55.5114C246.143 56.1037 244.797 56.1367 243.419 55.6102C238.757 53.9648 233.931 53.175 228.941 53.2408C225.199 53.2408 222.31 54.0635 220.275 55.7089C218.305 57.2884 217.32 59.4273 217.32 62.1257C217.32 66.9301 220.767 70.2866 227.661 72.1952C237.05 74.8278 243.681 78.0526 247.555 81.8698C251.429 85.6212 253.365 90.4914 253.365 96.4805C253.365 103.391 251.068 108.689 246.472 112.375C241.941 116.06 235.343 117.903 226.676 117.903C220.373 117.903 214.136 116.587 207.964 113.954C206.389 113.296 205.305 112.21 204.714 110.696C204.123 109.183 204.123 107.57 204.714 105.859L204.813 105.464C205.272 104.148 206.159 103.226 207.472 102.7C208.851 102.173 210.164 102.272 211.411 102.996C216.467 105.431 221.654 106.649 226.972 106.649C230.911 106.649 233.898 105.793 235.934 104.082C238.035 102.305 239.085 99.837 239.085 96.6779C239.085 93.8479 238.265 91.5773 236.623 89.8662C234.982 88.155 231.994 86.6742 227.661 85.4238H227.661Z" fill="white"/>
<path d="M271.979 116.916C270.403 116.916 269.057 116.356 267.941 115.237C266.825 114.053 266.267 112.704 266.267 111.19V46.824C266.267 45.2445 266.825 43.8953 267.941 42.7765C269.123 41.6576 270.469 41.0982 271.979 41.0982H273.653C275.229 41.0982 276.575 41.6905 277.691 42.8752C278.807 43.994 279.365 45.3103 279.365 46.824V71.0106C279.365 71.0764 279.398 71.1093 279.464 71.1093C279.529 71.1093 279.595 71.0764 279.661 71.0106C284.06 65.8771 289.411 63.3104 295.714 63.3104C301.754 63.3104 306.186 65.186 309.009 68.9374C311.898 72.6888 313.342 78.8095 313.342 87.2995V111.19C313.342 112.769 312.751 114.119 311.57 115.237C310.453 116.356 309.14 116.916 307.63 116.916H306.055C304.479 116.916 303.133 116.356 302.017 115.237C300.966 114.053 300.441 112.704 300.441 111.19V88.5828C300.441 82.7912 299.752 78.8753 298.373 76.8351C297.06 74.7949 294.663 73.7747 291.183 73.7747C288.032 73.7747 285.274 75.3543 282.911 78.5133C280.547 81.6066 279.365 85.0618 279.365 88.879V111.19C279.365 112.769 278.774 114.119 277.593 115.237C276.476 116.356 275.163 116.916 273.653 116.916H271.979Z" fill="white"/>
<path d="M335.501 53.2408C333.926 53.2408 332.547 52.6815 331.365 51.5626C330.249 50.378 329.691 49.0288 329.691 47.5151V46.824C329.691 45.2445 330.249 43.8953 331.365 42.7765C332.547 41.6576 333.926 41.0983 335.501 41.0983H337.865C339.441 41.0983 340.787 41.6906 341.903 42.8752C343.085 43.9941 343.675 45.3103 343.675 46.824V47.5151C343.675 49.0946 343.085 50.4438 341.903 51.5626C340.787 52.6815 339.441 53.2408 337.865 53.2408H335.501ZM335.501 116.916C333.926 116.916 332.547 116.356 331.365 115.237C330.249 114.053 329.691 112.704 329.691 111.19V70.1221C329.691 68.5426 330.249 67.1934 331.365 66.0745C332.547 64.9557 333.926 64.3963 335.501 64.3963H337.865C339.441 64.3963 340.787 64.9557 341.903 66.0745C343.085 67.1934 343.675 68.5426 343.675 70.1221V111.19C343.675 112.769 343.085 114.119 341.903 115.237C340.787 116.356 339.441 116.916 337.865 116.916H335.501Z" fill="white"/>
<path d="M366.228 116.916C364.653 116.916 363.307 116.356 362.19 115.237C361.14 114.053 360.615 112.704 360.615 111.19V70.1221C360.615 68.5425 361.14 67.1934 362.19 66.0745C363.307 64.9557 364.653 64.3963 366.228 64.3963H367.115C368.756 64.3963 370.135 64.9557 371.251 66.0745C372.367 67.1276 372.958 68.4767 373.024 70.1221L373.122 71.6029C373.122 71.6687 373.155 71.7016 373.221 71.7016C373.352 71.7016 373.418 71.6687 373.418 71.6029C375.453 69.0361 377.915 67.0288 380.804 65.5809C383.759 64.0672 386.812 63.3104 389.963 63.3104C396.003 63.3104 400.435 65.186 403.258 68.9374C406.147 72.6888 407.592 78.8095 407.592 87.2995V111.19C407.592 112.769 407.034 114.119 405.917 115.237C404.801 116.356 403.455 116.916 401.88 116.916H400.402C398.827 116.916 397.481 116.356 396.364 115.237C395.248 114.053 394.69 112.704 394.69 111.19V88.5828C394.69 82.7912 394.001 78.8753 392.622 76.8351C391.309 74.7949 388.913 73.7747 385.433 73.7747C382.478 73.7747 379.786 75.2885 377.357 78.3159C374.928 81.3434 373.713 84.8644 373.713 88.879V111.19C373.713 112.769 373.122 114.119 371.94 115.237C370.824 116.356 369.478 116.916 367.903 116.916H366.228Z" fill="white"/>
<path d="M432.508 116.126L415.273 69.7272C414.748 68.4767 414.879 67.2921 415.667 66.1732C416.455 64.9886 417.571 64.3963 419.016 64.3963H421.97C423.677 64.3963 425.187 64.8899 426.501 65.8771C427.879 66.8643 428.831 68.1806 429.357 69.826L439.205 102.996C439.205 103.062 439.238 103.095 439.304 103.095C439.435 103.095 439.5 103.062 439.5 102.996L450.728 69.826C451.253 68.1806 452.205 66.8643 453.584 65.8771C454.962 64.8899 456.538 64.3963 458.311 64.3963H460.773C462.086 64.3963 463.137 64.9557 463.924 66.0745C464.712 67.1934 464.844 68.4109 464.318 69.7272L439.205 133.797C438.614 135.442 437.596 136.726 436.152 137.647C434.708 138.634 433.165 139.128 431.523 139.128H429.061C427.617 139.128 426.501 138.568 425.713 137.45C424.99 136.331 424.925 135.146 425.516 133.896L432.508 117.705C432.574 117.442 432.607 117.179 432.607 116.916C432.607 116.652 432.574 116.389 432.508 116.126Z" fill="white"/>
<path d="M489.333 54.623V79.0069C489.333 79.4676 489.596 79.7638 490.121 79.8954C492.682 80.2245 495.177 80.389 497.606 80.389C503.056 80.389 507.192 79.2044 510.015 76.8351C512.904 74.4658 514.348 71.0435 514.348 66.5681C514.348 57.6174 508.768 53.1421 497.606 53.1421C495.177 53.1421 492.682 53.3067 490.121 53.6357C489.596 53.7673 489.333 54.0964 489.333 54.6229V54.623ZM481.061 116.916C479.485 116.916 478.139 116.356 477.023 115.237C475.972 114.053 475.447 112.704 475.447 111.19V49.3908C475.447 47.7454 475.972 46.2975 477.023 45.047C478.139 43.7308 479.485 43.0068 481.061 42.8752C486.773 42.3487 492.288 42.0854 497.606 42.0854C507.717 42.0854 515.268 44.0927 520.257 48.1074C525.313 52.122 527.841 57.9465 527.841 65.5809C527.841 74.0051 525.411 80.389 520.553 84.7327C515.694 89.0106 508.472 91.1496 498.886 91.1496C496.654 91.1496 493.732 91.0179 490.121 90.7547C489.596 90.7547 489.333 91.0179 489.333 91.5445V111.19C489.333 112.769 488.743 114.119 487.561 115.237C486.445 116.356 485.131 116.916 483.621 116.916H481.061Z" fill="white"/>
<path d="M567.727 77.8223C565.429 74.8607 562.277 73.3798 558.272 73.3798C554.267 73.3798 551.116 74.8607 548.818 77.8223C546.52 80.7181 545.371 84.996 545.371 90.656C545.371 96.316 546.52 100.627 548.818 103.588C551.116 106.484 554.267 107.932 558.272 107.932C562.277 107.932 565.429 106.484 567.727 103.588C570.025 100.627 571.174 96.316 571.174 90.656C571.174 84.996 570.025 80.7181 567.727 77.8223ZM577.28 110.598C572.618 115.468 566.282 117.903 558.272 117.903C550.262 117.903 543.927 115.468 539.265 110.598C534.603 105.662 532.273 99.0143 532.273 90.656C532.273 82.2976 534.603 75.6504 539.265 70.7144C543.927 65.7783 550.262 63.3104 558.272 63.3104C566.282 63.3104 572.618 65.7783 577.28 70.7144C581.941 75.6504 584.272 82.2976 584.272 90.656C584.272 99.0143 581.941 105.662 577.28 110.598Z" fill="white"/>
<path d="M617.658 72.8862C614.113 72.8862 611.224 73.9722 608.992 76.1441C606.825 78.3159 605.61 81.475 605.348 85.6212C605.348 86.1478 605.61 86.411 606.136 86.411H628.984C629.509 86.411 629.772 86.1478 629.772 85.6212C629.575 81.5408 628.393 78.4146 626.226 76.2428C624.125 74.0051 621.269 72.8862 617.658 72.8862ZM618.84 117.903C610.896 117.903 604.461 115.468 599.537 110.598C594.613 105.662 592.151 99.0143 592.151 90.656C592.151 82.166 594.416 75.4859 598.946 70.6157C603.542 65.7455 609.747 63.3104 617.56 63.3104C625.242 63.3104 631.249 65.6138 635.582 70.2208C639.981 74.7619 642.214 81.2775 642.279 89.7675C642.279 91.4128 641.656 92.762 640.408 93.815C639.226 94.8681 637.815 95.3946 636.173 95.3946H606.136C605.479 95.3946 605.216 95.6908 605.348 96.2831C605.807 99.9687 607.383 102.897 610.075 105.069C612.767 107.241 616.115 108.327 620.12 108.327C623.535 108.327 626.981 107.735 630.461 106.55C631.643 106.089 632.825 106.122 634.007 106.649C635.254 107.175 636.075 108.031 636.469 109.215C636.928 110.532 636.83 111.848 636.173 113.164C635.582 114.415 634.663 115.27 633.416 115.731C628.951 117.179 624.093 117.903 618.84 117.903Z" fill="white"/>
<path d="M658.825 116.916C657.249 116.916 655.903 116.356 654.787 115.237C653.671 114.053 653.113 112.704 653.113 111.19V70.1221C653.113 68.5425 653.671 67.1934 654.787 66.0745C655.903 64.9557 657.249 64.3963 658.825 64.3963H659.416C661.057 64.3963 662.436 64.9557 663.552 66.0745C664.734 67.1276 665.357 68.4767 665.423 70.1221L665.522 71.3067C665.522 71.3726 665.554 71.4055 665.62 71.4055C665.751 71.4055 665.817 71.3726 665.817 71.3067C669.691 65.9758 674.122 63.3104 679.112 63.3104C682.33 63.3104 685.021 63.9685 687.188 65.2848C689.355 66.601 691.193 68.7729 692.703 71.8003C692.703 71.8662 692.769 71.8991 692.9 71.8991C692.966 71.8991 693.031 71.8662 693.097 71.8003C697.496 66.1404 702.617 63.3104 708.461 63.3104C714.107 63.3104 718.211 64.8899 720.771 68.0489C723.397 71.208 724.71 76.4731 724.71 83.8443V111.19C724.71 112.769 724.12 114.119 722.938 115.237C721.822 116.356 720.476 116.916 718.9 116.916H717.718C716.142 116.916 714.796 116.356 713.68 115.237C712.564 114.053 712.006 112.704 712.006 111.19V86.9046C712.006 81.6395 711.448 78.1185 710.332 76.3415C709.216 74.4987 707.246 73.5773 704.423 73.5773C701.994 73.5773 699.86 74.8607 698.021 77.4274C696.249 79.9941 695.362 83.1532 695.362 86.9046V111.19C695.362 112.769 694.771 114.119 693.59 115.237C692.473 116.356 691.127 116.916 689.552 116.916H688.37C686.794 116.916 685.448 116.356 684.332 115.237C683.216 114.053 682.658 112.704 682.658 111.19V86.9046C682.658 81.6395 682.1 78.1185 680.984 76.3415C679.867 74.4987 677.898 73.5773 675.075 73.5773C672.645 73.5773 670.511 74.8607 668.673 77.4274C666.9 79.9941 666.014 83.1532 666.014 86.9046V111.19C666.014 112.769 665.456 114.119 664.34 115.237C663.224 116.356 661.878 116.916 660.302 116.916H658.825Z" fill="white"/>
<path d="M756.718 95.6907C749.299 94.5061 743.981 92.5317 740.764 89.7675C737.612 87.0033 736.036 83.2519 736.036 78.5133C736.036 73.8406 737.875 70.155 741.551 67.4566C745.228 64.6924 750.546 63.3104 757.506 63.3104C762.758 63.3104 767.748 64.0343 772.475 65.4822C773.789 65.8771 774.773 66.7326 775.43 68.0489C776.086 69.3652 776.251 70.7144 775.922 72.0965C775.594 73.347 774.839 74.2684 773.657 74.8607C772.541 75.453 771.326 75.5517 770.013 75.1568C766.205 73.9064 762.266 73.2811 758.195 73.2811C752.023 73.2811 748.938 75.091 748.938 78.7108C748.938 80.4877 749.594 81.8369 750.907 82.7583C752.286 83.6797 754.65 84.3708 757.998 84.8315C765.483 85.8845 770.834 87.826 774.051 90.656C777.268 93.486 778.877 97.369 778.877 102.305C778.877 107.175 777.006 110.992 773.263 113.757C769.586 116.521 764.334 117.903 757.506 117.903C751.203 117.903 745.524 116.949 740.468 115.04C739.024 114.514 738.006 113.559 737.415 112.177C736.89 110.795 736.791 109.38 737.12 107.932C737.382 106.682 738.105 105.793 739.287 105.267C740.468 104.674 741.683 104.641 742.93 105.168C747.395 107.011 752.024 107.932 756.817 107.932C762.66 107.932 765.582 105.958 765.582 102.009C765.582 100.166 764.958 98.8169 763.711 97.9613C762.529 97.0399 760.198 96.283 756.718 95.6907H756.718Z" fill="white"/>
<path d="M526.887 141.616C527.241 141.675 527.514 141.852 527.705 142.148C527.912 142.444 527.978 142.762 527.905 143.102C526.99 147.361 525.315 150.526 522.881 152.596C520.447 154.666 516.892 155.975 512.215 156.522C511.846 156.567 511.522 156.478 511.241 156.256C510.961 156.034 510.791 155.746 510.732 155.391L510.688 155.036C510.629 154.696 510.703 154.393 510.909 154.127C511.116 153.861 511.396 153.705 511.75 153.661C515.807 153.188 518.839 152.123 520.845 150.467C522.852 148.81 524.246 146.185 525.028 142.592C525.101 142.237 525.286 141.963 525.581 141.771C525.876 141.564 526.201 141.49 526.555 141.549L526.887 141.616ZM510.843 146.673C510.489 146.614 510.209 146.444 510.002 146.163C509.81 145.867 509.751 145.549 509.825 145.209L509.847 145.054C509.906 144.699 510.09 144.418 510.4 144.211C510.725 143.989 511.064 143.923 511.418 144.011C512.259 144.159 513.904 144.477 516.353 144.965C516.707 145.024 516.973 145.202 517.15 145.498C517.341 145.793 517.4 146.119 517.327 146.474L517.305 146.629C517.231 146.984 517.046 147.265 516.751 147.472C516.456 147.664 516.139 147.723 515.8 147.649C512.923 147.073 511.271 146.747 510.843 146.673L510.843 146.673ZM517.614 139.442C517.969 139.501 518.241 139.686 518.433 139.996C518.625 140.292 518.684 140.61 518.61 140.95L518.566 141.172C518.507 141.527 518.33 141.801 518.035 141.993C517.74 142.185 517.423 142.244 517.083 142.17C515.21 141.786 513.484 141.461 511.905 141.194C511.551 141.135 511.271 140.965 511.064 140.684C510.872 140.388 510.806 140.063 510.865 139.708L510.909 139.531C510.968 139.176 511.145 138.895 511.44 138.688C511.75 138.481 512.082 138.407 512.436 138.466C513.941 138.717 515.667 139.043 517.615 139.442L517.614 139.442Z" fill="white"/>
<path d="M533.149 147.716L533.127 147.649C533.053 147.295 533.112 146.969 533.304 146.673C533.511 146.378 533.791 146.2 534.145 146.141L536.712 145.609C536.845 145.579 536.904 145.505 536.889 145.387L536.513 143.324C536.454 142.969 536.528 142.651 536.734 142.37C536.941 142.074 537.214 141.897 537.553 141.838L537.885 141.771C538.239 141.712 538.556 141.793 538.837 142.015C539.132 142.222 539.309 142.496 539.368 142.836L539.722 144.81C539.751 144.943 539.825 145.002 539.943 144.988L547.29 143.501C547.644 143.442 547.961 143.516 548.242 143.723C548.522 143.915 548.699 144.182 548.773 144.522L548.795 144.566C548.957 145.468 548.913 146.311 548.662 147.095C548.087 148.766 547.224 150.267 546.073 151.598C545.852 151.864 545.549 152.012 545.166 152.042C544.782 152.056 544.45 151.953 544.17 151.731L544.037 151.62C543.771 151.413 543.631 151.132 543.617 150.777C543.602 150.422 543.705 150.119 543.926 149.868C544.797 148.818 545.468 147.731 545.94 146.607C545.955 146.577 545.947 146.548 545.918 146.518C545.889 146.474 545.852 146.459 545.807 146.474L540.386 147.561C540.253 147.59 540.201 147.672 540.231 147.805L541.581 155.325C541.64 155.68 541.566 155.997 541.359 156.278C541.153 156.559 540.872 156.73 540.518 156.789L540.209 156.855C539.854 156.914 539.53 156.84 539.235 156.633C538.955 156.426 538.785 156.145 538.726 155.79L537.398 148.359C537.369 148.241 537.295 148.197 537.177 148.226L534.632 148.736C534.278 148.796 533.961 148.729 533.68 148.537C533.4 148.345 533.223 148.071 533.149 147.716L533.149 147.716Z" fill="white"/>
<path d="M557.447 139.553H570.017C570.371 139.553 570.666 139.679 570.902 139.93C571.153 140.181 571.278 140.477 571.278 140.817V141.216C571.278 141.571 571.153 141.875 570.902 142.126C570.651 142.377 570.356 142.503 570.017 142.503H557.447C557.093 142.503 556.791 142.377 556.54 142.126C556.304 141.86 556.186 141.557 556.186 141.216V140.817C556.186 140.462 556.304 140.167 556.54 139.93C556.791 139.679 557.093 139.553 557.447 139.553ZM555.876 155.591C555.522 155.591 555.22 155.465 554.969 155.214C554.718 154.962 554.593 154.659 554.593 154.304V153.927C554.593 153.572 554.718 153.269 554.969 153.018C555.22 152.766 555.522 152.64 555.876 152.64H571.588C571.942 152.64 572.244 152.774 572.495 153.04C572.746 153.291 572.871 153.587 572.871 153.927V154.304C572.871 154.659 572.746 154.962 572.495 155.214C572.244 155.465 571.942 155.591 571.588 155.591H555.876Z" fill="white"/>
<path d="M578.536 142.059C578.182 142.059 577.88 141.934 577.629 141.682C577.378 141.416 577.253 141.106 577.253 140.751V140.529C577.253 140.174 577.378 139.871 577.629 139.619C577.88 139.368 578.182 139.242 578.536 139.242H594.248C594.602 139.242 594.905 139.368 595.156 139.619C595.406 139.871 595.532 140.174 595.532 140.529V142.059C594.248 146.023 591.394 149.224 586.968 151.664C586.864 151.724 586.85 151.805 586.923 151.908C587.13 152.204 587.418 152.64 587.786 153.217C588.17 153.779 588.443 154.186 588.605 154.437C588.797 154.733 588.856 155.051 588.782 155.391C588.708 155.716 588.524 155.968 588.229 156.145L587.72 156.478C587.425 156.67 587.1 156.729 586.746 156.656C586.407 156.582 586.127 156.389 585.905 156.079C584.194 153.55 582.424 151.021 580.594 148.492C580.388 148.211 580.314 147.901 580.373 147.561C580.447 147.221 580.624 146.947 580.904 146.74L581.391 146.429C581.686 146.222 582.011 146.156 582.365 146.23C582.719 146.289 583.007 146.459 583.228 146.74C583.39 146.962 583.943 147.731 584.888 149.047C584.961 149.15 585.057 149.173 585.175 149.114C586.798 148.256 588.222 147.221 589.446 146.008C590.671 144.781 591.571 143.524 592.146 142.237C592.205 142.119 592.168 142.059 592.035 142.059L578.536 142.059Z" fill="white"/>
<path d="M600.533 155.369L600.422 155.125C600.26 154.829 600.231 154.511 600.334 154.171C600.437 153.831 600.636 153.58 600.931 153.417C606.405 150.474 610.373 146.696 612.837 142.082C612.866 142.052 612.866 142.015 612.837 141.971C612.807 141.912 612.77 141.882 612.726 141.882H603.1C602.746 141.882 602.436 141.756 602.171 141.505C601.92 141.254 601.794 140.95 601.794 140.595V140.374C601.794 140.019 601.92 139.716 602.171 139.464C602.436 139.213 602.746 139.087 603.1 139.087H615.006C615.36 139.087 615.662 139.213 615.913 139.464C616.178 139.716 616.311 140.019 616.311 140.374V140.595C616.311 141.498 616.119 142.326 615.736 143.08C614.777 144.943 613.545 146.718 612.04 148.404C611.952 148.492 611.952 148.589 612.04 148.692C614.017 150.511 615.78 152.167 617.329 153.661C617.58 153.912 617.705 154.215 617.705 154.57C617.705 154.911 617.587 155.214 617.351 155.48L617.064 155.724C616.813 155.96 616.51 156.079 616.156 156.079C615.802 156.079 615.5 155.953 615.249 155.702C613.346 153.824 611.605 152.175 610.026 150.755C609.938 150.696 609.842 150.703 609.739 150.777C607.511 152.818 605.04 154.533 602.325 155.923C602.001 156.086 601.662 156.116 601.307 156.012C600.953 155.908 600.695 155.694 600.533 155.369V155.369Z" fill="white"/>
<path d="M621.556 150.067L621.467 149.934C621.305 149.638 621.276 149.32 621.379 148.98C621.497 148.64 621.718 148.389 622.043 148.226C625.141 146.629 627.501 144.618 629.124 142.193C629.183 142.104 629.154 142.059 629.036 142.059H622.817C622.463 142.059 622.154 141.934 621.888 141.682C621.637 141.416 621.512 141.113 621.512 140.773C621.512 140.418 621.637 140.115 621.888 139.863C622.154 139.597 622.463 139.464 622.817 139.464H629.965C630.098 139.464 630.164 139.405 630.164 139.287V138.266C630.164 137.911 630.29 137.608 630.541 137.357C630.791 137.091 631.094 136.957 631.448 136.957H631.979C632.333 136.957 632.636 137.091 632.886 137.357C633.137 137.608 633.262 137.911 633.262 138.266V139.287C633.262 139.405 633.329 139.464 633.462 139.464H640.609C640.963 139.464 641.266 139.597 641.517 139.863C641.782 140.115 641.915 140.418 641.915 140.773C641.915 141.113 641.782 141.416 641.517 141.682C641.266 141.934 640.963 142.059 640.609 142.059H634.037C633.904 142.059 633.853 142.119 633.882 142.237C634.325 144.263 634.9 146.045 635.608 147.583C635.667 147.687 635.741 147.694 635.829 147.605C636.936 146.688 637.954 145.756 638.883 144.81C639.134 144.559 639.429 144.433 639.768 144.433C640.108 144.433 640.403 144.551 640.654 144.788L640.764 144.899C641.015 145.135 641.14 145.439 641.14 145.808C641.155 146.163 641.037 146.466 640.786 146.718C639.665 147.871 638.47 148.958 637.201 149.979C637.098 150.053 637.083 150.141 637.157 150.245C638.278 151.857 639.724 153.276 641.494 154.504C641.775 154.696 641.952 154.97 642.026 155.325C642.114 155.665 642.07 155.99 641.893 156.301L641.782 156.456C641.59 156.752 641.317 156.951 640.963 157.055C640.609 157.158 640.285 157.107 639.99 156.9C637.983 155.643 636.228 153.883 634.723 151.62C633.218 149.358 632.126 146.799 631.448 143.945C631.403 143.827 631.352 143.804 631.293 143.878C630.629 144.884 629.869 145.808 629.014 146.651C628.925 146.74 628.881 146.851 628.881 146.984V153.949C628.881 154.082 628.94 154.134 629.058 154.105C630.386 153.868 631.913 153.543 633.639 153.129C633.934 153.055 634.214 153.106 634.48 153.284C634.745 153.461 634.9 153.705 634.944 154.016C634.989 154.371 634.922 154.696 634.745 154.992C634.568 155.273 634.317 155.451 633.993 155.524C630.703 156.367 627.383 156.981 624.035 157.366C623.695 157.395 623.385 157.299 623.105 157.077C622.84 156.87 622.685 156.597 622.64 156.256C622.596 155.916 622.677 155.613 622.884 155.347C623.09 155.081 623.371 154.933 623.725 154.903C624.153 154.859 624.802 154.778 625.672 154.659C625.805 154.63 625.871 154.556 625.871 154.438V149.358C625.871 149.313 625.849 149.284 625.805 149.269C625.775 149.239 625.746 149.239 625.716 149.269C624.949 149.772 624.145 150.23 623.304 150.644C622.98 150.807 622.648 150.837 622.309 150.733C621.969 150.615 621.718 150.393 621.556 150.068L621.556 150.067Z" fill="white"/>
<path d="M663.956 155.214C664.251 155.317 664.465 155.524 664.597 155.835C664.73 156.145 664.723 156.441 664.575 156.722L664.509 156.811C664.332 157.151 664.059 157.387 663.69 157.521C663.336 157.668 662.989 157.683 662.65 157.565C660.555 156.84 658.718 155.776 657.14 154.371C657.081 154.312 657.051 154.334 657.051 154.437L657.096 154.881C657.14 155.251 657.051 155.576 656.83 155.857C656.624 156.153 656.351 156.338 656.011 156.411C653.061 156.959 649.977 157.38 646.761 157.676C646.422 157.706 646.12 157.617 645.854 157.41C645.603 157.203 645.448 156.929 645.389 156.589C645.36 156.249 645.448 155.96 645.655 155.724C645.861 155.472 646.134 155.332 646.474 155.302C647.506 155.214 648.244 155.132 648.687 155.058C648.805 155.058 648.864 154.992 648.864 154.859V153.328C648.864 153.225 648.805 153.188 648.687 153.217C647.89 153.513 646.879 153.838 645.655 154.193C645.301 154.282 644.962 154.245 644.637 154.082C644.327 153.92 644.113 153.661 643.995 153.306C643.877 153.01 643.892 152.714 644.04 152.419C644.202 152.123 644.453 151.945 644.792 151.886C646.725 151.457 648.355 150.969 649.683 150.422C649.697 150.393 649.697 150.37 649.683 150.356H645.345C645.006 150.356 644.726 150.245 644.504 150.023C644.283 149.801 644.172 149.527 644.172 149.202C644.172 148.862 644.283 148.574 644.504 148.337C644.74 148.1 645.021 147.982 645.345 147.982H652.913C653.017 147.982 653.076 147.93 653.09 147.827C653.09 147.546 653.194 147.294 653.4 147.073C653.622 146.836 653.88 146.718 654.175 146.718H655.104C655.399 146.718 655.65 146.829 655.857 147.05C656.078 147.272 656.189 147.531 656.189 147.827C656.189 147.93 656.24 147.982 656.344 147.982H663.403C663.742 147.982 664.022 148.1 664.244 148.337C664.465 148.574 664.576 148.862 664.576 149.202C664.576 149.527 664.458 149.801 664.222 150.023C664 150.245 663.727 150.356 663.403 150.356H662.186C662.156 150.356 662.141 150.37 662.141 150.4C662.141 150.415 662.149 150.43 662.163 150.444L662.827 150.844C663.108 151.006 663.27 151.25 663.314 151.576C663.373 151.886 663.277 152.145 663.026 152.352C662.495 152.84 661.89 153.343 661.212 153.861C661.123 153.92 661.131 153.979 661.234 154.038C662.178 154.541 663.085 154.933 663.956 155.214L663.956 155.214ZM656.454 153.927C656.572 153.897 656.587 153.838 656.498 153.75C655.495 152.729 654.713 151.635 654.152 150.467C654.123 150.393 654.064 150.356 653.975 150.356C653.901 150.356 653.835 150.378 653.776 150.422C653.23 150.836 652.625 151.25 651.962 151.664C651.858 151.723 651.807 151.82 651.807 151.953V154.504C651.807 154.637 651.866 154.689 651.984 154.659C653.311 154.467 654.801 154.223 656.454 153.927ZM658.799 152.308C658.888 152.382 658.976 152.382 659.065 152.308C659.921 151.672 660.636 151.066 661.212 150.489C661.241 150.474 661.241 150.452 661.212 150.422C661.197 150.378 661.175 150.356 661.145 150.356H657.339C657.221 150.356 657.199 150.407 657.273 150.511C657.671 151.117 658.18 151.716 658.799 152.308V152.308ZM645.699 146.429C645.36 146.533 645.02 146.511 644.681 146.363C644.356 146.215 644.128 145.964 643.995 145.609C643.877 145.283 643.892 144.973 644.039 144.677C644.187 144.366 644.43 144.159 644.77 144.056C646.437 143.538 647.728 143.109 648.642 142.769C648.76 142.725 648.819 142.636 648.819 142.503V141.15C648.819 141.12 648.797 141.098 648.753 141.083C648.723 141.054 648.694 141.046 648.664 141.061L647.978 141.66C647.713 141.882 647.403 141.978 647.049 141.949C646.695 141.919 646.385 141.779 646.12 141.527C645.706 141.098 645.293 140.684 644.88 140.285C644.644 140.048 644.526 139.76 644.526 139.42C644.541 139.065 644.674 138.784 644.925 138.577L644.991 138.533C645.271 138.296 645.596 138.178 645.965 138.178C646.333 138.178 646.643 138.303 646.894 138.555C647.587 139.191 648.192 139.804 648.709 140.396C648.782 140.47 648.819 140.448 648.819 140.329V138.555C648.819 138.2 648.945 137.897 649.196 137.645C649.461 137.394 649.764 137.268 650.103 137.268H650.368C650.722 137.268 651.025 137.394 651.276 137.645C651.527 137.897 651.652 138.2 651.652 138.555V146.097C651.652 146.452 651.519 146.755 651.254 147.006C651.003 147.258 650.708 147.383 650.368 147.383H650.103C649.749 147.383 649.446 147.258 649.196 147.006C648.945 146.74 648.819 146.437 648.819 146.097V145.476C648.819 145.342 648.76 145.306 648.642 145.365C647.551 145.793 646.57 146.148 645.699 146.429L645.699 146.429ZM658.799 137.268C659.154 137.268 659.456 137.394 659.707 137.645C659.958 137.897 660.083 138.2 660.083 138.555V138.843C660.083 138.976 660.142 139.043 660.26 139.043H663.314C663.668 139.043 663.963 139.168 664.199 139.42C664.45 139.671 664.575 139.967 664.575 140.307C664.575 140.632 664.45 140.921 664.199 141.172C663.963 141.424 663.668 141.549 663.314 141.549H660.26C660.142 141.549 660.083 141.616 660.083 141.749V143.745C660.083 143.864 660.142 143.93 660.26 143.945H663.026C663.365 143.945 663.638 144.056 663.845 144.278C664.066 144.499 664.177 144.78 664.177 145.121C664.177 145.446 664.066 145.719 663.845 145.941C663.638 146.163 663.365 146.274 663.026 146.274H654.108C653.769 146.274 653.488 146.163 653.267 145.941C653.046 145.719 652.935 145.446 652.935 145.121C652.935 144.78 653.046 144.499 653.267 144.278C653.488 144.056 653.769 143.945 654.108 143.945H656.786C656.918 143.945 656.985 143.878 656.985 143.745V141.749C656.985 141.616 656.918 141.549 656.786 141.549H653.577C653.223 141.549 652.928 141.424 652.692 141.172C652.456 140.921 652.338 140.632 652.338 140.307C652.338 139.967 652.456 139.671 652.692 139.42C652.943 139.168 653.238 139.043 653.577 139.043H656.786C656.918 139.043 656.985 138.976 656.985 138.843V138.555C656.985 138.2 657.11 137.897 657.361 137.645C657.627 137.394 657.929 137.268 658.268 137.268H658.799Z" fill="white"/>
<path d="M667.873 154.238C667.548 154.105 667.327 153.875 667.209 153.55C667.091 153.21 667.113 152.884 667.275 152.574C668.145 150.74 668.972 148.877 669.754 146.984C669.886 146.644 670.122 146.4 670.462 146.252C670.801 146.104 671.133 146.082 671.457 146.185L671.789 146.296C672.129 146.4 672.372 146.607 672.52 146.917C672.667 147.228 672.675 147.546 672.542 147.871C671.834 149.646 670.978 151.591 669.975 153.705C669.812 154.045 669.562 154.282 669.222 154.415C668.898 154.533 668.566 154.526 668.227 154.393L667.873 154.238ZM685.355 154.504C685.015 154.622 684.683 154.615 684.359 154.482C684.034 154.334 683.806 154.097 683.673 153.772C683.127 152.441 682.271 150.474 681.106 147.871C680.973 147.546 680.973 147.221 681.106 146.895C681.253 146.57 681.482 146.348 681.792 146.23L682.08 146.119C682.419 145.986 682.758 145.986 683.098 146.119C683.437 146.237 683.68 146.466 683.828 146.807C684.669 148.625 685.539 150.592 686.439 152.707C686.572 153.047 686.564 153.38 686.417 153.705C686.284 154.016 686.048 154.238 685.709 154.371L685.355 154.504ZM683.695 140.906C683.99 141.187 684.337 141.327 684.735 141.327C685.148 141.327 685.495 141.187 685.775 140.906C686.07 140.61 686.218 140.263 686.218 139.863C686.218 139.449 686.07 139.102 685.775 138.821C685.495 138.525 685.148 138.377 684.735 138.377C684.337 138.377 683.99 138.525 683.695 138.821C683.415 139.102 683.275 139.449 683.275 139.863C683.275 140.263 683.415 140.61 683.695 140.906ZM682.345 137.445C683.009 136.78 683.806 136.447 684.735 136.447C685.679 136.447 686.483 136.78 687.147 137.445C687.811 138.111 688.143 138.91 688.143 139.841C688.143 140.492 687.981 141.091 687.656 141.638C687.332 142.17 686.889 142.577 686.328 142.858C686.225 142.902 686.173 142.998 686.173 143.146C686.173 143.353 686.092 143.538 685.93 143.701C685.768 143.864 685.583 143.945 685.377 143.945H678.804C678.686 143.945 678.627 144.011 678.627 144.145V153.639C678.627 155.147 678.443 156.086 678.074 156.456C677.705 156.84 676.776 157.033 675.286 157.033C674.637 157.033 673.847 156.988 672.918 156.899C672.564 156.87 672.276 156.707 672.055 156.411C671.834 156.13 671.738 155.82 671.767 155.48V155.369C671.797 155.014 671.952 154.726 672.232 154.504C672.512 154.267 672.829 154.164 673.183 154.193C673.936 154.252 674.408 154.282 674.6 154.282C675.042 154.282 675.3 154.237 675.374 154.149C675.448 154.045 675.485 153.735 675.485 153.217V144.144C675.485 144.011 675.419 143.945 675.286 143.945H668.713C668.359 143.945 668.057 143.819 667.806 143.568C667.57 143.302 667.452 142.991 667.452 142.636V142.503C667.452 142.148 667.577 141.845 667.828 141.594C668.079 141.342 668.374 141.216 668.713 141.216H675.286C675.419 141.216 675.485 141.142 675.485 140.995V138.998C675.485 138.643 675.61 138.347 675.861 138.111C676.112 137.859 676.414 137.734 676.768 137.734H677.322C677.676 137.734 677.978 137.859 678.229 138.111C678.495 138.362 678.627 138.658 678.627 138.998V140.995C678.627 141.128 678.686 141.202 678.804 141.216H681.438C681.556 141.216 681.6 141.157 681.571 141.039C681.423 140.61 681.349 140.211 681.349 139.841C681.349 138.909 681.681 138.111 682.345 137.445L682.345 137.445Z" fill="white"/>
<path d="M692.06 155.591C691.706 155.591 691.403 155.465 691.153 155.214C690.917 154.962 690.799 154.659 690.799 154.304V154.149C690.799 153.794 690.917 153.491 691.153 153.239C691.403 152.988 691.706 152.862 692.06 152.862H697.902C698.035 152.862 698.101 152.803 698.101 152.685V142.459C698.101 142.34 698.035 142.281 697.902 142.281H692.746C692.392 142.281 692.089 142.156 691.839 141.904C691.588 141.638 691.462 141.327 691.462 140.973V140.817C691.462 140.462 691.588 140.166 691.839 139.93C692.089 139.678 692.392 139.553 692.746 139.553H706.643C706.997 139.553 707.3 139.678 707.55 139.93C707.801 140.181 707.927 140.477 707.927 140.817V140.973C707.927 141.327 707.801 141.638 707.55 141.904C707.3 142.156 706.997 142.281 706.643 142.281H701.487C701.354 142.281 701.288 142.34 701.288 142.459V152.685C701.288 152.803 701.354 152.862 701.487 152.862H707.329C707.683 152.862 707.978 152.995 708.214 153.262C708.465 153.513 708.59 153.809 708.59 154.149V154.304C708.59 154.659 708.465 154.962 708.214 155.214C707.978 155.465 707.683 155.591 707.329 155.591H692.06Z" fill="white"/>
<path d="M713.924 155.923C713.569 155.938 713.26 155.82 712.994 155.569C712.729 155.317 712.588 155.021 712.574 154.681V154.548C712.559 154.193 712.67 153.883 712.906 153.617C713.156 153.35 713.459 153.202 713.813 153.173C713.901 153.158 714.034 153.151 714.211 153.151C714.403 153.151 714.543 153.143 714.632 153.129C714.75 153.129 714.831 153.069 714.875 152.951V152.929C716.409 148.788 717.767 144.33 718.947 139.553C719.035 139.198 719.235 138.925 719.544 138.732C719.854 138.54 720.179 138.481 720.518 138.555L721.093 138.643C721.448 138.717 721.713 138.902 721.89 139.198C722.082 139.494 722.141 139.812 722.067 140.152C721.02 144.5 719.766 148.685 718.305 152.707C718.276 152.825 718.32 152.885 718.438 152.885C721.329 152.648 724.302 152.308 727.356 151.864C727.489 151.835 727.526 151.761 727.467 151.642C726.655 149.883 726.058 148.596 725.674 147.783C725.512 147.457 725.482 147.132 725.586 146.807C725.704 146.466 725.925 146.222 726.25 146.075L726.692 145.897C727.032 145.749 727.364 145.734 727.688 145.853C728.013 145.971 728.256 146.185 728.418 146.496C729.54 148.832 730.742 151.428 732.025 154.282C732.173 154.607 732.18 154.933 732.048 155.258C731.915 155.569 731.686 155.79 731.361 155.923L730.875 156.123C730.535 156.256 730.203 156.256 729.879 156.123C729.554 155.99 729.318 155.761 729.171 155.435C729.156 155.421 729.104 155.31 729.016 155.103C728.927 154.896 728.861 154.74 728.817 154.637C728.772 154.504 728.691 154.452 728.573 154.481C723.454 155.236 718.571 155.716 713.924 155.923L713.924 155.923Z" fill="white"/>
<path d="M734.792 152.374L734.526 151.798C734.172 151.043 734.201 150.282 734.614 149.513C735.618 147.694 736.341 145.72 736.783 143.59C736.813 143.472 736.761 143.413 736.628 143.413H735.721C735.382 143.413 735.086 143.287 734.836 143.035C734.6 142.784 734.482 142.496 734.482 142.17C734.482 141.83 734.607 141.534 734.858 141.283C735.109 141.032 735.396 140.906 735.721 140.906H736.805C736.938 140.906 737.012 140.839 737.026 140.706V138.555C737.026 138.2 737.144 137.897 737.381 137.645C737.631 137.394 737.934 137.268 738.288 137.268H738.443C738.797 137.268 739.099 137.394 739.35 137.645C739.601 137.897 739.726 138.2 739.726 138.555V140.706C739.726 140.839 739.793 140.906 739.925 140.906H740.257C740.729 140.906 741.083 141.106 741.319 141.505C741.378 141.608 741.452 141.616 741.541 141.527C741.644 141.423 741.732 141.349 741.806 141.305C743.282 140.373 744.683 139.257 746.011 137.956C746.645 137.349 747.368 137.046 748.179 137.046H748.423C749.234 137.046 749.957 137.349 750.592 137.956C751.919 139.242 753.321 140.359 754.796 141.305C755.091 141.497 755.298 141.771 755.416 142.126C755.549 142.466 755.541 142.814 755.394 143.168L755.349 143.279C755.217 143.575 754.988 143.782 754.663 143.901C754.354 144.004 754.051 143.96 753.756 143.767C753.24 143.427 752.812 143.124 752.473 142.858C752.384 142.799 752.318 142.814 752.273 142.902C752.082 143.331 751.742 143.546 751.255 143.546H749.95C749.832 143.546 749.773 143.612 749.773 143.745V144.5C749.773 144.618 749.832 144.677 749.95 144.677H753.225C753.579 144.677 753.874 144.81 754.11 145.076C754.361 145.328 754.486 145.631 754.486 145.986V150.444C754.486 150.799 754.361 151.103 754.11 151.354C753.859 151.605 753.564 151.731 753.225 151.731H750.392C750.348 151.731 750.311 151.753 750.282 151.798C750.267 151.842 750.274 151.879 750.304 151.909C751.027 153.151 752.48 154.142 754.663 154.881C754.988 154.999 755.217 155.214 755.349 155.524C755.497 155.82 755.504 156.123 755.371 156.434L755.283 156.611C755.135 156.951 754.892 157.188 754.553 157.321C754.228 157.469 753.896 157.476 753.557 157.343C751.403 156.441 749.751 155.191 748.6 153.594C748.526 153.491 748.445 153.484 748.356 153.572C747.102 155.199 745.325 156.463 743.023 157.365C742.684 157.499 742.352 157.484 742.027 157.321C741.703 157.173 741.467 156.937 741.319 156.611L741.231 156.434C741.098 156.108 741.106 155.798 741.253 155.502C741.4 155.191 741.644 154.977 741.983 154.859C744.122 154.105 745.553 153.121 746.276 151.908C746.306 151.879 746.306 151.842 746.276 151.797C746.262 151.753 746.232 151.731 746.188 151.731H744.639H743.377C743.023 151.731 742.721 151.605 742.47 151.354C742.234 151.102 742.116 150.799 742.116 150.444V150.134C742.116 150.104 742.101 150.082 742.072 150.067C742.042 150.053 742.013 150.06 741.983 150.089C741.954 150.134 741.895 150.186 741.806 150.245C741.57 150.422 741.305 150.474 741.01 150.4C740.729 150.311 740.538 150.134 740.434 149.868C740.42 149.809 740.206 149.254 739.793 148.204C739.763 148.204 739.741 148.219 739.726 148.249V156.589C739.726 156.944 739.601 157.24 739.35 157.476C739.099 157.728 738.797 157.854 738.443 157.854H738.288C737.934 157.854 737.631 157.728 737.381 157.476C737.144 157.225 737.026 156.929 737.026 156.589V149.957C737.012 149.942 736.982 149.934 736.938 149.934C736.658 150.807 736.326 151.628 735.942 152.397C735.824 152.633 735.632 152.752 735.367 152.752C735.101 152.752 734.909 152.626 734.791 152.375L734.792 152.374ZM744.639 149.424C744.639 149.542 744.706 149.609 744.838 149.624H746.653C746.771 149.624 746.83 149.557 746.83 149.424V147.073C746.83 146.954 746.771 146.895 746.653 146.895H744.838C744.706 146.895 744.639 146.954 744.639 147.073V149.424ZM751.698 146.895H749.95C749.832 146.895 749.773 146.954 749.773 147.073V149.424C749.773 149.542 749.832 149.609 749.95 149.624H751.698C751.816 149.624 751.875 149.557 751.875 149.424V147.073C751.875 146.954 751.816 146.895 751.698 146.895ZM748.18 139.087C747.383 139.96 746.712 140.655 746.166 141.172C746.137 141.202 746.129 141.231 746.144 141.261C746.159 141.276 746.181 141.283 746.21 141.283H750.393C750.422 141.283 750.444 141.276 750.459 141.261C750.474 141.231 750.467 141.202 750.437 141.172C749.685 140.462 749.021 139.775 748.445 139.109C748.342 139.02 748.254 139.013 748.18 139.087L748.18 139.087ZM740.169 143.413C740.125 143.413 740.088 143.435 740.058 143.479C740.044 143.509 740.044 143.538 740.058 143.568C740.648 144.869 741.305 146.333 742.028 147.96C742.043 147.975 742.057 147.982 742.072 147.982C742.102 147.982 742.116 147.967 742.116 147.938V145.985C742.116 145.631 742.242 145.327 742.493 145.076C742.743 144.81 743.039 144.677 743.378 144.677H746.653C746.771 144.677 746.83 144.618 746.83 144.499V143.745C746.83 143.612 746.771 143.545 746.653 143.545H745.347C744.86 143.545 744.521 143.331 744.329 142.902C744.285 142.813 744.219 142.799 744.13 142.858C744.027 142.946 743.607 143.242 742.869 143.745C742.589 143.937 742.279 143.989 741.939 143.9C741.615 143.797 741.386 143.59 741.253 143.279L741.231 143.191C741.187 143.102 741.121 143.087 741.032 143.146C740.811 143.324 740.553 143.412 740.258 143.412L740.169 143.413Z" fill="white"/>
<path d="M758.669 140.817C758.33 140.817 758.042 140.699 757.806 140.462C757.585 140.226 757.474 139.945 757.474 139.619C757.474 139.279 757.592 138.998 757.828 138.776C758.064 138.54 758.345 138.422 758.669 138.422H765.928C766.06 138.422 766.127 138.348 766.127 138.2V138.089C766.127 137.734 766.252 137.438 766.503 137.201C766.754 136.95 767.056 136.824 767.41 136.824H767.941C768.295 136.824 768.598 136.95 768.849 137.201C769.099 137.453 769.225 137.749 769.225 138.089V138.2C769.225 138.333 769.291 138.407 769.424 138.422H776.682C777.022 138.422 777.302 138.54 777.523 138.776C777.759 138.998 777.877 139.279 777.877 139.619C777.877 139.945 777.759 140.226 777.523 140.462C777.287 140.699 777.007 140.817 776.682 140.817H769.424C769.291 140.817 769.225 140.884 769.225 141.017V141.993C769.225 142.111 769.291 142.178 769.424 142.192H776.063C776.417 142.192 776.719 142.318 776.97 142.57C777.221 142.821 777.346 143.124 777.346 143.479V146.496C777.346 146.851 777.213 147.161 776.948 147.428C776.697 147.679 776.402 147.805 776.063 147.805H775.908C775.554 147.805 775.251 147.679 775 147.428C774.75 147.161 774.624 146.851 774.624 146.496V144.588C774.624 144.455 774.558 144.389 774.425 144.389H768.627C768.598 144.389 768.568 144.403 768.539 144.433C768.524 144.463 768.524 144.492 768.539 144.522C768.701 144.744 768.767 145.002 768.738 145.298C768.708 145.579 768.576 145.816 768.34 146.008C767.602 146.57 766.643 147.228 765.463 147.982C765.36 148.041 765.36 148.123 765.463 148.226C765.758 148.463 765.972 148.648 766.104 148.781C766.208 148.855 766.318 148.855 766.436 148.781C768.34 147.598 770.036 146.444 771.526 145.32C771.806 145.113 772.131 145.025 772.5 145.054C772.883 145.069 773.208 145.195 773.474 145.431L773.54 145.476C773.776 145.698 773.887 145.979 773.872 146.319C773.857 146.659 773.71 146.925 773.429 147.117C771.88 148.256 770.191 149.365 768.362 150.445C768.347 150.459 768.34 150.482 768.34 150.511C768.34 150.541 768.354 150.556 768.384 150.556L773.407 150.423C773.437 150.423 773.459 150.408 773.474 150.378C773.488 150.334 773.488 150.297 773.474 150.267C773.282 150.031 773.215 149.764 773.275 149.469C773.333 149.158 773.503 148.936 773.783 148.803L773.983 148.714C774.322 148.552 774.669 148.515 775.023 148.603C775.392 148.692 775.701 148.877 775.952 149.158C776.513 149.838 777.118 150.607 777.767 151.465C777.973 151.731 778.04 152.034 777.966 152.374C777.892 152.715 777.7 152.959 777.39 153.107L777.213 153.195C776.918 153.358 776.601 153.402 776.262 153.328C775.923 153.254 775.65 153.084 775.443 152.818C775.369 152.715 775.273 152.663 775.155 152.663L769.402 152.818C769.284 152.818 769.225 152.885 769.225 153.018V156.389C769.225 156.744 769.099 157.047 768.848 157.299C768.598 157.55 768.295 157.676 767.941 157.676H767.41C767.056 157.676 766.754 157.543 766.503 157.277C766.252 157.025 766.127 156.73 766.127 156.389V153.084C766.127 152.966 766.06 152.907 765.927 152.907L758.735 153.106C758.396 153.121 758.108 153.018 757.872 152.796C757.651 152.574 757.533 152.293 757.518 151.953C757.504 151.627 757.607 151.354 757.828 151.132C758.064 150.91 758.337 150.792 758.647 150.777L763.183 150.666C763.228 150.666 763.346 150.607 763.537 150.489L763.582 150.444C763.656 150.415 763.663 150.37 763.604 150.311C762.379 149.306 761.332 148.485 760.461 147.849H760.439C760.425 147.849 760.417 147.842 760.417 147.827C760.344 147.753 760.262 147.745 760.174 147.805C759.953 147.953 759.709 148.027 759.444 148.027H759.289C758.935 148.027 758.632 147.901 758.382 147.649C758.131 147.383 758.005 147.073 758.005 146.718V143.479C758.005 143.124 758.131 142.821 758.382 142.57C758.647 142.318 758.95 142.193 759.289 142.193H765.928C766.06 142.193 766.127 142.126 766.127 141.993V141.017C766.127 140.884 766.06 140.817 765.928 140.817L758.669 140.817ZM766.082 144.389H760.926C760.794 144.389 760.727 144.455 760.727 144.588V145.853C760.727 145.897 760.749 145.934 760.794 145.964C760.838 145.978 760.875 145.971 760.904 145.941C761.553 145.572 762.158 145.609 762.719 146.052C762.763 146.082 762.822 146.134 762.896 146.208C762.984 146.282 763.051 146.333 763.095 146.363C763.213 146.452 763.316 146.459 763.405 146.385C764.305 145.794 765.205 145.172 766.105 144.522C766.134 144.492 766.142 144.463 766.127 144.433C766.127 144.403 766.112 144.388 766.082 144.388L766.082 144.389ZM762.143 153.217C762.438 153.04 762.763 152.981 763.117 153.04C763.486 153.084 763.781 153.247 764.002 153.528C764.209 153.764 764.29 154.045 764.246 154.371C764.201 154.696 764.047 154.94 763.781 155.103C762.763 155.739 761.598 156.382 760.285 157.033C759.93 157.195 759.576 157.232 759.222 157.144C758.868 157.07 758.573 156.885 758.337 156.589L758.249 156.5C758.042 156.249 757.976 155.968 758.05 155.657C758.123 155.332 758.308 155.11 758.603 154.992C759.768 154.474 760.949 153.883 762.144 153.217L762.143 153.217ZM776.793 154.947C777.073 155.095 777.25 155.339 777.324 155.679C777.398 156.02 777.332 156.323 777.125 156.589L777.081 156.655C776.859 156.936 776.564 157.114 776.196 157.188C775.827 157.262 775.487 157.203 775.178 157.01C773.54 156.108 772.301 155.435 771.46 154.992C771.18 154.844 771.002 154.622 770.929 154.326C770.855 154.016 770.914 153.735 771.106 153.483C771.312 153.202 771.578 153.018 771.902 152.929C772.227 152.825 772.544 152.847 772.854 152.995C774.388 153.72 775.701 154.371 776.793 154.947L776.793 154.947Z" fill="white"/>
</g>
<g clip-path="url(#clip1_9_2)">
<path d="M162.838 146.445H59.3729C65.3108 135.179 76.9693 112.168 76.9693 112.168C95.8458 112.798 105.284 102.1 97.7351 93.9216C123.097 94.4369 135.668 80.4839 128.475 72.0108C136.04 74.4071 147.151 74.0595 156.884 68.7516C177.645 57.4241 176.39 18.4115 139.892 23.4457C103.722 28.4348 65.9159 115.939 48.8672 147.349C46.3971 151.896 47.8408 155.176 50.3436 155.704C51.2677 156.497 52.4578 157 53.7705 157H162.838C165.749 157 168.117 154.636 168.117 151.721C168.117 148.809 165.749 146.445 162.838 146.445Z" fill="white"/>
<path d="M108.269 119.861C105.358 119.861 102.99 122.224 102.99 125.14C102.99 128.052 105.358 130.415 108.269 130.415H162.805C165.717 130.415 168.08 128.052 168.08 125.14C168.08 122.224 165.717 119.861 162.805 119.861H108.269Z" fill="white"/>
</g>
<defs>
<clipPath id="clip0_9_2">
<rect width="586" height="130" fill="white" transform="translate(197 34)"/>
</clipPath>
<clipPath id="clip1_9_2">
<rect width="134" height="134" fill="white" transform="translate(42 23)"/>
</clipPath>
</defs>
</svg>
