<svg width="824" height="186" fill="none" xmlns="http://www.w3.org/2000/svg"><path d="M113.248 55.043C97.607 63.98 99.645 92.5 99.645 92.5s-11.172-4.192-9.492-26.813c-29.69 26.17-28.77 49.818-24.006 66.299-13.344 13.764-19.627 24.515-20.092 25.338a4.474 4.474 0 001.672 6.095 4.485 4.485 0 002.207.581 4.464 4.464 0 003.888-2.261c.107-.188 6.131-10.439 19.028-23.694C172.977 154.893 179.528 21 179.528 21c-19.555 15.918-41.425 20.914-66.28 34.043z" fill="#fff"/><path d="M139.309 155.062h-71.5a4.471 4.471 0 00-4.468 4.469A4.47 4.47 0 0067.809 164h71.5a4.47 4.47 0 004.469-4.469 4.471 4.471 0 00-4.469-4.469z" fill="#fff"/><g clip-path="url(#clip0)" fill="#fff"><path d="M227.661 85.424c-8.601-2.501-14.871-5.627-18.81-9.379-3.874-3.817-5.811-8.457-5.811-13.92 0-6.054 2.265-10.892 6.796-14.511 4.53-3.686 10.8-5.529 18.81-5.529 5.975 0 11.884.922 17.727 2.765 1.576.46 2.692 1.415 3.349 2.862.656 1.448.755 2.995.295 4.64-.328 1.448-1.182 2.501-2.561 3.16-1.313.592-2.659.625-4.037.098a41.517 41.517 0 00-14.478-2.37c-3.742 0-6.631.823-8.666 2.469-1.97 1.58-2.955 3.718-2.955 6.417 0 4.804 3.447 8.16 10.341 10.07 9.389 2.632 16.02 5.857 19.894 9.674 3.874 3.751 5.811 8.621 5.811 14.61 0 6.911-2.298 12.209-6.894 15.895-4.531 3.685-11.129 5.528-19.796 5.528-6.303 0-12.54-1.316-18.712-3.949-1.575-.658-2.659-1.744-3.25-3.258-.591-1.513-.591-3.126 0-4.837l.099-.395c.459-1.316 1.346-2.238 2.659-2.764 1.379-.527 2.692-.428 3.939.296 5.056 2.435 10.243 3.653 15.561 3.653 3.939 0 6.926-.856 8.962-2.567 2.101-1.777 3.151-4.245 3.151-7.404 0-2.83-.82-5.1-2.462-6.812-1.641-1.711-4.629-3.192-8.962-4.442zM271.979 116.916c-1.576 0-2.922-.56-4.038-1.679-1.116-1.184-1.674-2.533-1.674-4.047V46.824c0-1.58.558-2.929 1.674-4.047 1.182-1.12 2.528-1.679 4.038-1.679h1.674c1.576 0 2.922.593 4.038 1.777 1.116 1.119 1.674 2.435 1.674 3.949v24.187c0 .065.033.098.099.098.065 0 .131-.033.197-.098 4.399-5.134 9.75-7.7 16.053-7.7 6.04 0 10.472 1.875 13.295 5.626 2.889 3.752 4.333 9.873 4.333 18.362v23.891c0 1.579-.591 2.929-1.772 4.047-1.117 1.119-2.43 1.679-3.94 1.679h-1.575c-1.576 0-2.922-.56-4.038-1.679-1.051-1.184-1.576-2.533-1.576-4.047V88.583c0-5.792-.689-9.708-2.068-11.748-1.313-2.04-3.71-3.06-7.19-3.06-3.151 0-5.909 1.58-8.272 4.738-2.364 3.094-3.546 6.549-3.546 10.366v22.311c0 1.579-.591 2.929-1.772 4.047-1.117 1.119-2.43 1.679-3.94 1.679h-1.674zM335.501 53.24c-1.575 0-2.954-.559-4.136-1.677-1.116-1.185-1.674-2.534-1.674-4.048v-.691c0-1.58.558-2.929 1.674-4.047 1.182-1.12 2.561-1.679 4.136-1.679h2.364c1.576 0 2.922.593 4.038 1.777 1.182 1.12 1.772 2.435 1.772 3.949v.691c0 1.58-.59 2.929-1.772 4.048-1.116 1.118-2.462 1.678-4.038 1.678h-2.364zm0 63.676c-1.575 0-2.954-.56-4.136-1.679-1.116-1.184-1.674-2.533-1.674-4.047V70.122c0-1.58.558-2.929 1.674-4.047 1.182-1.12 2.561-1.679 4.136-1.679h2.364c1.576 0 2.922.56 4.038 1.678 1.182 1.12 1.772 2.469 1.772 4.048v41.068c0 1.579-.59 2.929-1.772 4.047-1.116 1.119-2.462 1.679-4.038 1.679h-2.364zM366.228 116.916c-1.575 0-2.921-.56-4.037-1.679-1.051-1.184-1.576-2.533-1.576-4.047V70.122c0-1.58.525-2.929 1.576-4.047 1.116-1.12 2.462-1.679 4.037-1.679h.887c1.641 0 3.02.56 4.136 1.678 1.116 1.054 1.707 2.403 1.773 4.048l.098 1.48c0 .067.033.1.099.1.131 0 .197-.033.197-.1 2.035-2.566 4.497-4.573 7.386-6.021 2.955-1.514 6.008-2.27 9.159-2.27 6.04 0 10.472 1.875 13.295 5.626 2.889 3.752 4.334 9.873 4.334 18.362v23.891c0 1.579-.558 2.929-1.675 4.047-1.116 1.119-2.462 1.679-4.037 1.679h-1.478c-1.575 0-2.921-.56-4.038-1.679-1.116-1.184-1.674-2.533-1.674-4.047V88.583c0-5.792-.689-9.708-2.068-11.748-1.313-2.04-3.709-3.06-7.189-3.06-2.955 0-5.647 1.513-8.076 4.54-2.429 3.028-3.644 6.55-3.644 10.564v22.311c0 1.579-.591 2.929-1.773 4.047-1.116 1.119-2.462 1.679-4.037 1.679h-1.675zM432.508 116.126l-17.235-46.399c-.525-1.25-.394-2.435.394-3.554.788-1.184 1.904-1.777 3.349-1.777h2.954c1.707 0 3.217.494 4.531 1.481 1.378.987 2.33 2.304 2.856 3.949l9.848 33.17c0 .066.033.099.099.099.131 0 .196-.033.196-.099l11.228-33.17c.525-1.645 1.477-2.962 2.856-3.949 1.378-.987 2.954-1.48 4.727-1.48h2.462c1.313 0 2.364.559 3.151 1.678.788 1.118.92 2.336.394 3.652l-25.113 64.07c-.591 1.645-1.609 2.929-3.053 3.85-1.444.987-2.987 1.481-4.629 1.481h-2.462c-1.444 0-2.56-.56-3.348-1.678-.723-1.119-.788-2.304-.197-3.554l6.992-16.191a3.23 3.23 0 000-1.579zM489.333 54.623v24.384c0 .46.263.757.788.888 2.561.33 5.056.494 7.485.494 5.45 0 9.586-1.185 12.409-3.554 2.889-2.37 4.333-5.791 4.333-10.267 0-8.95-5.58-13.426-16.742-13.426-2.429 0-4.924.165-7.485.494-.525.131-.788.46-.788.987zm-8.272 62.293c-1.576 0-2.922-.56-4.038-1.679-1.051-1.184-1.576-2.533-1.576-4.047v-61.8c0-1.645.525-3.093 1.576-4.343 1.116-1.316 2.462-2.04 4.038-2.172 5.712-.526 11.227-.79 16.545-.79 10.111 0 17.662 2.008 22.651 6.022 5.056 4.015 7.584 9.84 7.584 17.474 0 8.424-2.429 14.808-7.288 19.152-4.859 4.278-12.081 6.417-21.667 6.417-2.232 0-5.154-.132-8.765-.395-.525 0-.788.263-.788.79v19.645c0 1.579-.59 2.929-1.772 4.047-1.116 1.119-2.43 1.679-3.94 1.679h-2.56zM567.727 77.822c-2.298-2.961-5.45-4.442-9.455-4.442s-7.156 1.48-9.454 4.442c-2.298 2.896-3.447 7.174-3.447 12.834 0 5.66 1.149 9.971 3.447 12.932 2.298 2.896 5.449 4.344 9.454 4.344 4.005 0 7.157-1.448 9.455-4.344 2.298-2.961 3.447-7.272 3.447-12.932s-1.149-9.938-3.447-12.834zm9.553 32.776c-4.662 4.87-10.998 7.305-19.008 7.305s-14.345-2.435-19.007-7.305c-4.662-4.936-6.992-11.584-6.992-19.942s2.33-15.006 6.992-19.942 10.997-7.404 19.007-7.404c8.01 0 14.346 2.468 19.008 7.404 4.661 4.936 6.992 11.584 6.992 19.942s-2.331 15.006-6.992 19.942zM617.658 72.886c-3.545 0-6.434 1.086-8.666 3.258-2.167 2.172-3.382 5.331-3.644 9.477 0 .527.262.79.788.79h22.848c.525 0 .788-.263.788-.79-.197-4.08-1.379-7.206-3.546-9.378-2.101-2.238-4.957-3.357-8.568-3.357zm1.182 45.017c-7.944 0-14.379-2.435-19.303-7.305-4.924-4.936-7.386-11.584-7.386-19.942 0-8.49 2.265-15.17 6.795-20.04 4.596-4.87 10.801-7.306 18.614-7.306 7.682 0 13.689 2.304 18.022 6.91 4.399 4.542 6.632 11.058 6.697 19.547 0 1.646-.623 2.995-1.871 4.048-1.182 1.053-2.593 1.58-4.235 1.58h-30.037c-.657 0-.92.296-.788.888.459 3.686 2.035 6.614 4.727 8.786 2.692 2.172 6.04 3.258 10.045 3.258 3.415 0 6.861-.592 10.341-1.777 1.182-.461 2.364-.428 3.546.099 1.247.526 2.068 1.382 2.462 2.566.459 1.317.361 2.633-.296 3.949-.591 1.251-1.51 2.106-2.757 2.567-4.465 1.448-9.323 2.172-14.576 2.172zM658.825 116.916c-1.576 0-2.922-.56-4.038-1.679-1.116-1.184-1.674-2.533-1.674-4.047V70.122c0-1.58.558-2.929 1.674-4.047 1.116-1.12 2.462-1.679 4.038-1.679h.591c1.641 0 3.02.56 4.136 1.678 1.182 1.054 1.805 2.403 1.871 4.048l.099 1.185c0 .066.032.099.098.099.131 0 .197-.033.197-.1 3.874-5.33 8.306-7.996 13.295-7.996 3.218 0 5.909.658 8.076 1.975 2.167 1.316 4.005 3.488 5.515 6.515 0 .066.066.1.197.1.066 0 .131-.034.197-.1 4.399-5.66 9.52-8.49 15.364-8.49 5.646 0 9.75 1.58 12.31 4.739 2.626 3.159 3.939 8.424 3.939 15.795v27.346c0 1.579-.59 2.929-1.772 4.047-1.116 1.119-2.462 1.679-4.038 1.679h-1.182c-1.576 0-2.922-.56-4.038-1.679-1.116-1.184-1.674-2.533-1.674-4.047V86.905c0-5.266-.558-8.787-1.674-10.564-1.116-1.842-3.086-2.764-5.909-2.764-2.429 0-4.563 1.284-6.402 3.85-1.772 2.567-2.659 5.726-2.659 9.478v24.285c0 1.579-.591 2.929-1.772 4.047-1.117 1.119-2.463 1.679-4.038 1.679h-1.182c-1.576 0-2.922-.56-4.038-1.679-1.116-1.184-1.674-2.533-1.674-4.047V86.905c0-5.266-.558-8.787-1.674-10.564-1.117-1.842-3.086-2.764-5.909-2.764-2.43 0-4.564 1.284-6.402 3.85-1.773 2.567-2.659 5.726-2.659 9.478v24.285c0 1.579-.558 2.929-1.674 4.047-1.116 1.119-2.462 1.679-4.038 1.679h-1.477zM756.718 95.69c-7.419-1.184-12.737-3.158-15.954-5.922-3.152-2.765-4.728-6.516-4.728-11.255 0-4.672 1.839-8.358 5.515-11.056 3.677-2.765 8.995-4.147 15.955-4.147 5.252 0 10.242.724 14.969 2.172 1.314.395 2.298 1.25 2.955 2.567.656 1.316.821 2.665.492 4.047-.328 1.251-1.083 2.172-2.265 2.765-1.116.592-2.331.69-3.644.296a37.638 37.638 0 00-11.818-1.876c-6.171 0-9.257 1.81-9.257 5.43 0 1.777.656 3.126 1.969 4.047 1.379.922 3.743 1.613 7.091 2.074 7.485 1.053 12.836 2.994 16.053 5.824 3.217 2.83 4.826 6.713 4.826 11.649 0 4.87-1.871 8.687-5.614 11.452-3.676 2.764-8.929 4.146-15.757 4.146-6.303 0-11.982-.954-17.038-2.863-1.444-.526-2.462-1.481-3.053-2.863a7.207 7.207 0 01-.295-4.245c.262-1.25.985-2.139 2.167-2.665 1.181-.593 2.396-.626 3.643-.099a36.058 36.058 0 0013.887 2.764c5.843 0 8.765-1.974 8.765-5.923 0-1.843-.624-3.192-1.871-4.048-1.182-.921-3.513-1.678-6.993-2.27zM526.887 141.616c.354.059.627.236.818.532.207.296.273.614.2.954-.915 4.259-2.59 7.424-5.024 9.494-2.434 2.07-5.989 3.379-10.666 3.926a1.263 1.263 0 01-.974-.266 1.35 1.35 0 01-.509-.865l-.044-.355c-.059-.34.015-.643.221-.909a1.21 1.21 0 01.841-.466c4.057-.473 7.089-1.538 9.095-3.194 2.007-1.657 3.401-4.282 4.183-7.875.074-.355.258-.629.553-.821.295-.207.62-.281.974-.222l.332.067zm-16.044 5.057a1.262 1.262 0 01-.841-.51 1.215 1.215 0 01-.177-.954l.022-.155c.059-.355.243-.636.553-.843.325-.222.664-.288 1.018-.2.841.148 2.486.466 4.935.954.354.059.62.237.797.533.191.295.25.621.177.976l-.022.155a1.325 1.325 0 01-.554.843 1.208 1.208 0 01-.951.177c-2.877-.576-4.529-.902-4.957-.976zm6.772-7.231c.354.059.627.244.818.554.192.296.251.614.177.954l-.044.222a1.165 1.165 0 01-.531.821 1.21 1.21 0 01-.952.177 152.637 152.637 0 00-5.178-.976 1.262 1.262 0 01-.841-.51 1.332 1.332 0 01-.199-.976l.044-.177c.059-.355.236-.636.532-.843.309-.207.641-.281.995-.222 1.505.251 3.231.577 5.179.976zM533.149 147.716l-.022-.067a1.256 1.256 0 01.177-.976 1.24 1.24 0 01.841-.532l2.567-.532c.133-.03.192-.104.177-.222l-.376-2.063a1.214 1.214 0 01.221-.954c.207-.296.48-.473.819-.532l.332-.067c.354-.059.671.022.952.244.295.207.472.481.531.821l.354 1.974c.029.133.103.192.221.178l7.347-1.487c.354-.059.671.015.952.222.28.192.457.459.531.799l.022.044c.162.902.118 1.745-.133 2.529a13.572 13.572 0 01-2.589 4.503c-.221.266-.524.414-.907.444a1.464 1.464 0 01-.996-.311l-.133-.111a1.069 1.069 0 01-.42-.843 1.244 1.244 0 01.309-.909c.871-1.05 1.542-2.137 2.014-3.261.015-.03.008-.059-.022-.089-.029-.044-.066-.059-.111-.044l-5.421 1.087c-.133.029-.185.111-.155.244l1.35 7.52c.059.355-.015.672-.222.953a1.26 1.26 0 01-.841.511l-.309.066a1.266 1.266 0 01-1.483-1.065l-1.328-7.431c-.029-.118-.103-.162-.221-.133l-2.545.51a1.267 1.267 0 01-1.483-1.02zM557.447 139.553h12.57c.354 0 .649.125.885.377.251.251.376.547.376.887v.399c0 .355-.125.659-.376.91a1.212 1.212 0 01-.885.377h-12.57c-.354 0-.656-.126-.907-.377a1.332 1.332 0 01-.354-.91v-.399c0-.355.118-.651.354-.887.251-.252.553-.377.907-.377zm-1.571 16.038c-.354 0-.656-.126-.907-.377a1.242 1.242 0 01-.376-.91v-.377c0-.355.125-.658.376-.909.251-.252.553-.378.907-.378h15.712c.354 0 .656.134.907.4.251.251.376.547.376.887v.377c0 .355-.125.658-.376.91a1.236 1.236 0 01-.907.377h-15.712zM578.536 142.059c-.354 0-.656-.125-.907-.377a1.313 1.313 0 01-.376-.931v-.222c0-.355.125-.658.376-.91.251-.251.553-.377.907-.377h15.712c.354 0 .657.126.908.377.25.252.376.555.376.91v1.53c-1.284 3.964-4.138 7.165-8.564 9.605-.104.06-.118.141-.045.244.207.296.495.732.863 1.309.384.562.657.969.819 1.22.192.296.251.614.177.954a1.143 1.143 0 01-.553.754l-.509.333c-.295.192-.62.251-.974.178-.339-.074-.619-.267-.841-.577a293.274 293.274 0 00-5.311-7.587 1.175 1.175 0 01-.221-.931c.074-.34.251-.614.531-.821l.487-.311c.295-.207.62-.273.974-.199.354.059.642.229.863.51.162.222.715.991 1.66 2.307.073.103.169.126.287.067 1.623-.858 3.047-1.893 4.271-3.106 1.225-1.227 2.125-2.484 2.7-3.771.059-.118.022-.178-.111-.178h-13.499zM600.533 155.369l-.111-.244a1.192 1.192 0 01-.088-.954c.103-.34.302-.591.597-.754 5.474-2.943 9.442-6.721 11.906-11.335.03-.03.03-.067 0-.111-.03-.059-.066-.089-.111-.089H603.1a1.31 1.31 0 01-.929-.377 1.241 1.241 0 01-.377-.91v-.221c0-.355.126-.658.377-.91a1.31 1.31 0 01.929-.377h11.906c.354 0 .656.126.907.377.265.252.398.555.398.91v.221c0 .903-.192 1.731-.575 2.485-.959 1.863-2.191 3.638-3.696 5.324-.088.088-.088.185 0 .288a311.45 311.45 0 015.289 4.969c.251.251.376.554.376.909 0 .341-.118.644-.354.91l-.287.244a1.28 1.28 0 01-.908.355c-.354 0-.656-.126-.907-.377a157.763 157.763 0 00-5.222-4.947c-.089-.059-.185-.052-.288.022a33.568 33.568 0 01-7.414 5.146 1.344 1.344 0 01-1.017.089 1.207 1.207 0 01-.775-.643zM621.556 150.067l-.089-.133a1.192 1.192 0 01-.088-.954c.118-.34.339-.591.664-.754 3.098-1.597 5.459-3.608 7.081-6.033.059-.089.03-.134-.088-.134h-6.218c-.355 0-.664-.125-.93-.377a1.288 1.288 0 01-.376-.909c0-.355.125-.658.376-.91.266-.266.575-.399.93-.399h7.147c.133 0 .199-.059.199-.177v-1.021c0-.355.126-.658.377-.909.25-.266.553-.4.907-.4h.531c.354 0 .657.134.907.4.251.251.377.554.377.909v1.021c0 .118.066.177.199.177h7.147c.355 0 .657.133.908.399.265.252.398.555.398.91 0 .34-.133.643-.398.909a1.233 1.233 0 01-.908.377h-6.572c-.133 0-.184.06-.155.178.443 2.026 1.018 3.808 1.726 5.346.059.104.133.111.221.022a40.365 40.365 0 003.054-2.795c.251-.251.546-.377.885-.377.34 0 .635.118.886.355l.11.111c.251.236.376.54.376.909.015.355-.103.658-.354.91a39.73 39.73 0 01-3.585 3.261c-.103.074-.118.162-.044.266 1.121 1.612 2.567 3.031 4.337 4.259.281.192.458.466.532.821.088.34.044.665-.133.976l-.111.155a1.416 1.416 0 01-.819.599 1.085 1.085 0 01-.973-.155c-2.007-1.257-3.762-3.017-5.267-5.28-1.505-2.262-2.597-4.821-3.275-7.675-.045-.118-.096-.141-.155-.067a17.153 17.153 0 01-2.279 2.773.451.451 0 00-.133.333v6.965c0 .133.059.185.177.156a80.73 80.73 0 004.581-.976 1.01 1.01 0 01.841.155c.265.177.42.421.464.732.045.355-.022.68-.199.976a1.158 1.158 0 01-.752.532 74.254 74.254 0 01-9.958 1.842c-.34.029-.65-.067-.93-.289a1.2 1.2 0 01-.465-.821c-.044-.34.037-.643.244-.909.206-.266.487-.414.841-.444a64.038 64.038 0 001.947-.244c.133-.029.199-.103.199-.221v-5.08c0-.045-.022-.074-.066-.089-.03-.03-.059-.03-.089 0-.767.503-1.571.961-2.412 1.375a1.295 1.295 0 01-.995.089 1.284 1.284 0 01-.753-.665v-.001zM663.956 155.214c.295.103.509.31.641.621.133.31.126.606-.022.887l-.066.089c-.177.34-.45.576-.819.71a1.417 1.417 0 01-1.04.044c-2.095-.725-3.932-1.789-5.51-3.194-.059-.059-.089-.037-.089.066l.045.444a1.27 1.27 0 01-.266.976 1.303 1.303 0 01-.819.554c-2.95.548-6.033.969-9.25 1.265a1.247 1.247 0 01-.907-.266 1.319 1.319 0 01-.465-.821c-.029-.34.059-.629.266-.865.206-.252.479-.392.819-.422 1.032-.088 1.77-.17 2.213-.244.118 0 .177-.066.177-.199v-1.531c0-.103-.059-.14-.177-.111-.797.296-1.808.621-3.032.976a1.426 1.426 0 01-1.018-.111 1.298 1.298 0 01-.642-.776 1.04 1.04 0 01.797-1.42c1.933-.429 3.563-.917 4.891-1.464.014-.029.014-.052 0-.066h-4.338a1.14 1.14 0 01-1.173-1.154c0-.34.111-.628.332-.865.236-.237.517-.355.841-.355h7.568c.104 0 .163-.052.177-.155 0-.281.104-.533.31-.754.222-.237.48-.355.775-.355h.929c.295 0 .546.111.753.332.221.222.332.481.332.777 0 .103.051.155.155.155h7.059c.339 0 .619.118.841.355.221.237.332.525.332.865 0 .325-.118.599-.354.821a1.113 1.113 0 01-.819.333h-1.217c-.03 0-.045.014-.045.044 0 .015.008.03.022.044l.664.4a.948.948 0 01.487.732c.059.31-.037.569-.288.776-.531.488-1.135.991-1.814 1.509-.089.059-.081.118.022.177a16.77 16.77 0 002.722 1.176zm-7.502-1.287c.118-.03.133-.089.044-.177-1.003-1.021-1.785-2.115-2.346-3.283-.029-.074-.088-.111-.177-.111a.326.326 0 00-.199.066 24.36 24.36 0 01-1.814 1.242c-.104.059-.155.156-.155.289v2.551c0 .133.059.185.177.155 1.327-.192 2.817-.436 4.47-.732zm2.346-1.619c.088.074.176.074.265 0 .856-.636 1.571-1.242 2.147-1.819.029-.015.029-.037 0-.067-.015-.044-.037-.066-.067-.066h-3.806c-.118 0-.14.051-.066.155.398.606.907 1.205 1.527 1.797zm-13.101-5.879a1.426 1.426 0 01-1.018-.066 1.284 1.284 0 01-.686-.754 1.14 1.14 0 01.044-.932c.148-.311.391-.518.731-.621 1.667-.518 2.958-.947 3.872-1.287.118-.044.177-.133.177-.266v-1.353c0-.03-.022-.052-.066-.067-.03-.029-.059-.037-.089-.022l-.686.599a1.236 1.236 0 01-.929.289 1.497 1.497 0 01-.929-.422 48.44 48.44 0 00-1.24-1.242 1.18 1.18 0 01-.354-.865c.015-.355.148-.636.399-.843l.066-.044c.28-.237.605-.355.974-.355s.678.125.929.377a23.383 23.383 0 011.815 1.841c.074.074.11.052.11-.067v-1.774c0-.355.126-.658.377-.91.265-.251.568-.377.907-.377h.265c.355 0 .657.126.908.377.251.252.376.555.376.91v7.542c0 .355-.133.658-.398.909a1.208 1.208 0 01-.886.377h-.265a1.23 1.23 0 01-.907-.377 1.289 1.289 0 01-.377-.909v-.621c0-.134-.059-.17-.177-.111a51.272 51.272 0 01-2.943 1.064zm13.101-9.161c.354 0 .656.126.907.377.251.252.376.555.376.91v.288c0 .133.059.2.177.2h3.054c.354 0 .649.125.885.377.251.251.376.547.376.887 0 .325-.125.614-.376.865a1.161 1.161 0 01-.885.377h-3.054c-.118 0-.177.067-.177.2v1.996c0 .119.059.185.177.2h2.766c.34 0 .612.111.819.333.221.221.332.502.332.843 0 .325-.111.598-.332.82-.207.222-.479.333-.819.333h-8.918a1.138 1.138 0 01-1.173-1.153c0-.341.111-.622.332-.843.221-.222.502-.333.841-.333h2.678c.132 0 .199-.067.199-.2v-1.996c0-.133-.067-.2-.199-.2h-3.209c-.354 0-.649-.125-.885-.377a1.227 1.227 0 01-.354-.865c0-.34.118-.636.354-.887.251-.252.546-.377.885-.377h3.209c.132 0 .199-.067.199-.2v-.288c0-.355.125-.658.376-.91.266-.251.568-.377.907-.377h.532zM667.873 154.238a1.133 1.133 0 01-.664-.688 1.186 1.186 0 01.066-.976c.87-1.834 1.697-3.697 2.479-5.59.132-.34.368-.584.708-.732.339-.148.671-.17.995-.067l.332.111c.34.104.583.311.731.621.147.311.155.629.022.954a101.212 101.212 0 01-2.567 5.834c-.163.34-.413.577-.753.71a1.364 1.364 0 01-.995-.022l-.354-.155zm17.482.266c-.34.118-.672.111-.996-.022a1.293 1.293 0 01-.686-.71c-.546-1.331-1.402-3.298-2.567-5.901a1.244 1.244 0 010-.976 1.21 1.21 0 01.686-.665l.288-.111a1.349 1.349 0 011.018 0c.339.118.582.347.73.688a209.247 209.247 0 012.611 5.9c.133.34.125.673-.022.998a1.213 1.213 0 01-.708.666l-.354.133zm-1.66-13.598c.295.281.642.421 1.04.421.413 0 .76-.14 1.04-.421a1.43 1.43 0 00.443-1.043c0-.414-.148-.761-.443-1.042a1.375 1.375 0 00-1.04-.444c-.398 0-.745.148-1.04.444-.28.281-.42.628-.42 1.042 0 .4.14.747.42 1.043zm-1.35-3.461c.664-.665 1.461-.998 2.39-.998.944 0 1.748.333 2.412.998.664.666.996 1.465.996 2.396 0 .651-.162 1.25-.487 1.797a3.205 3.205 0 01-1.328 1.22c-.103.044-.155.14-.155.288a.767.767 0 01-.243.555.76.76 0 01-.553.244h-6.573c-.118 0-.177.066-.177.2v9.494c0 1.508-.184 2.447-.553 2.817-.369.384-1.298.577-2.788.577a25.48 25.48 0 01-2.368-.134 1.156 1.156 0 01-.863-.488 1.283 1.283 0 01-.288-.931v-.111c.03-.355.185-.643.465-.865.28-.237.597-.34.951-.311.753.059 1.225.089 1.417.089.442 0 .7-.045.774-.133.074-.104.111-.414.111-.932v-9.073c0-.133-.066-.199-.199-.199h-6.573c-.354 0-.656-.126-.907-.377a1.36 1.36 0 01-.354-.932v-.133c0-.355.125-.658.376-.909.251-.252.546-.378.885-.378h6.573c.133 0 .199-.074.199-.221v-1.997c0-.355.125-.651.376-.887.251-.252.553-.377.907-.377h.554c.354 0 .656.125.907.377.266.251.398.547.398.887v1.997c0 .133.059.207.177.221h2.634c.118 0 .162-.059.133-.177a3.687 3.687 0 01-.222-1.198c0-.932.332-1.73.996-2.396zM692.06 155.591c-.354 0-.657-.126-.907-.377a1.283 1.283 0 01-.354-.91v-.155c0-.355.118-.658.354-.909.25-.252.553-.378.907-.378h5.842c.133 0 .199-.059.199-.177v-10.226c0-.119-.066-.178-.199-.178h-5.156a1.23 1.23 0 01-.907-.377 1.316 1.316 0 01-.377-.931v-.156c0-.355.126-.651.377-.887a1.23 1.23 0 01.907-.377h13.897c.354 0 .657.125.907.377.251.251.377.547.377.887v.156c0 .354-.126.665-.377.931a1.23 1.23 0 01-.907.377h-5.156c-.133 0-.199.059-.199.178v10.226c0 .118.066.177.199.177h5.842c.354 0 .649.133.885.4.251.251.376.547.376.887v.155c0 .355-.125.658-.376.91a1.165 1.165 0 01-.885.377H692.06zM713.924 155.923a1.23 1.23 0 01-.93-.354 1.265 1.265 0 01-.42-.888v-.133a1.273 1.273 0 01.332-.931c.25-.267.553-.415.907-.444.088-.015.221-.022.398-.022.192 0 .332-.008.421-.022.118 0 .199-.06.243-.178v-.022c1.534-4.141 2.892-8.599 4.072-13.376.088-.355.288-.628.597-.821.31-.192.635-.251.974-.177l.575.088c.355.074.62.259.797.555.192.296.251.614.177.954a116.899 116.899 0 01-3.762 12.555c-.029.118.015.178.133.178 2.892-.237 5.864-.577 8.918-1.021.133-.029.17-.103.111-.222a557.486 557.486 0 00-1.793-3.859 1.262 1.262 0 01-.088-.976 1.2 1.2 0 01.664-.732l.442-.178c.34-.148.672-.163.996-.044.325.118.568.332.73.643a341.78 341.78 0 013.607 7.786c.148.325.155.651.023.976a1.216 1.216 0 01-.686.665l-.487.2c-.34.133-.672.133-.996 0a1.287 1.287 0 01-.708-.688 2.38 2.38 0 01-.155-.332l-.199-.466c-.044-.133-.126-.185-.244-.156-5.119.755-10.002 1.235-14.649 1.442zM734.792 152.374l-.266-.576c-.354-.755-.325-1.516.088-2.285a21.012 21.012 0 002.169-5.923c.03-.118-.022-.177-.155-.177h-.907c-.339 0-.635-.126-.885-.378a1.226 1.226 0 01-.354-.865c0-.34.125-.636.376-.887s.538-.377.863-.377h1.084c.133 0 .207-.067.221-.2v-2.151c0-.355.118-.658.355-.91.25-.251.553-.377.907-.377h.155c.354 0 .656.126.907.377.251.252.376.555.376.91v2.151c0 .133.067.2.199.2h.332c.472 0 .826.2 1.062.599.059.103.133.111.222.022.103-.104.191-.178.265-.222a25.358 25.358 0 004.205-3.349c.634-.607 1.357-.91 2.169-.91h.243c.811 0 1.534.303 2.169.91a26.95 26.95 0 004.204 3.349c.295.192.502.466.62.821.133.34.125.688-.022 1.043l-.045.11a1.145 1.145 0 01-.686.622c-.309.103-.612.059-.907-.133a19.853 19.853 0 01-1.283-.91c-.089-.059-.155-.044-.2.044-.191.429-.531.644-1.017.644h-1.306c-.118 0-.177.066-.177.199v.755c0 .118.059.177.177.177h3.275c.354 0 .649.133.885.399.251.252.376.555.376.91v4.458c0 .355-.125.659-.376.91a1.212 1.212 0 01-.885.377h-2.833c-.044 0-.081.022-.11.067-.015.044-.008.081.022.111.723 1.242 2.176 2.233 4.359 2.972.325.118.554.333.686.643.148.296.155.599.022.91l-.088.177a1.28 1.28 0 01-.73.71 1.229 1.229 0 01-.996.022c-2.154-.902-3.806-2.151-4.957-3.749-.074-.103-.155-.11-.244-.022-1.254 1.627-3.031 2.891-5.333 3.793a1.17 1.17 0 01-.996-.044 1.386 1.386 0 01-.708-.71l-.088-.177a1.085 1.085 0 01.022-.932c.148-.311.391-.525.73-.643 2.139-.754 3.57-1.738 4.293-2.951.03-.029.03-.066 0-.11-.014-.045-.044-.067-.088-.067h-2.811c-.354 0-.656-.126-.907-.377a1.283 1.283 0 01-.354-.91v-.31c0-.03-.015-.052-.044-.067-.03-.014-.059-.007-.089.022a.623.623 0 01-.177.156.9.9 0 01-.796.155.866.866 0 01-.576-.532c-.014-.059-.228-.614-.641-1.664-.03 0-.052.015-.067.045v8.34c0 .355-.125.651-.376.887a1.233 1.233 0 01-.907.378h-.155a1.25 1.25 0 01-1.262-1.265v-6.632c-.014-.015-.044-.022-.088-.022-.28.872-.612 1.693-.996 2.462a.6.6 0 01-.575.355c-.266 0-.457-.126-.576-.377l.001-.001zm9.847-2.95c0 .118.067.185.199.2h1.815c.118 0 .177-.067.177-.2v-2.351c0-.119-.059-.178-.177-.178h-1.815c-.132 0-.199.059-.199.178v2.351zm7.059-2.529h-1.748c-.118 0-.177.059-.177.178v2.351c0 .118.059.185.177.2h1.748c.118 0 .177-.067.177-.2v-2.351c0-.119-.059-.178-.177-.178zm-3.518-7.808a41.425 41.425 0 01-2.014 2.085c-.029.03-.037.059-.022.089.015.015.037.022.066.022h4.183c.029 0 .052-.007.066-.022.015-.03.008-.059-.022-.089a28.276 28.276 0 01-1.991-2.063c-.104-.089-.192-.096-.266-.022zm-8.011 4.326c-.044 0-.081.022-.111.066a.1.1 0 000 .089c.59 1.301 1.247 2.765 1.97 4.392.015.015.029.022.044.022.03 0 .044-.015.044-.044v-1.952c0-.355.126-.659.377-.91.25-.266.546-.399.885-.399h3.275c.118 0 .177-.059.177-.178v-.754c0-.133-.059-.2-.177-.2h-1.306c-.487 0-.826-.214-1.018-.643-.044-.089-.11-.103-.199-.044-.103.088-.523.384-1.261.887-.28.192-.59.244-.93.155a1.064 1.064 0 01-.686-.621l-.022-.088c-.044-.089-.11-.104-.199-.045a1.196 1.196 0 01-.774.266l-.089.001zM758.669 140.817a1.172 1.172 0 01-1.195-1.198c0-.34.118-.621.354-.843a1.15 1.15 0 01.841-.354h7.259c.132 0 .199-.074.199-.222v-.111c0-.355.125-.651.376-.888.251-.251.553-.377.907-.377h.531c.354 0 .657.126.908.377.25.252.376.548.376.888v.111c0 .133.066.207.199.222h7.258c.34 0 .62.118.841.354.236.222.354.503.354.843 0 .326-.118.607-.354.843a1.145 1.145 0 01-.841.355h-7.258c-.133 0-.199.067-.199.2v.976c0 .118.066.185.199.199h6.639c.354 0 .656.126.907.378.251.251.376.554.376.909v3.017c0 .355-.133.665-.398.932a1.212 1.212 0 01-.885.377h-.155c-.354 0-.657-.126-.908-.377a1.321 1.321 0 01-.376-.932v-1.908c0-.133-.066-.199-.199-.199h-5.798c-.029 0-.059.014-.088.044a.094.094 0 000 .089c.162.222.228.48.199.776a1.03 1.03 0 01-.398.71c-.738.562-1.697 1.22-2.877 1.974-.103.059-.103.141 0 .244.295.237.509.422.641.555.104.074.214.074.332 0a68.527 68.527 0 005.09-3.461 1.4 1.4 0 01.974-.266c.383.015.708.141.974.377l.066.045c.236.222.347.503.332.843a.97.97 0 01-.443.798 60.337 60.337 0 01-5.067 3.328c-.015.014-.022.037-.022.066 0 .03.014.045.044.045l5.023-.133c.03 0 .052-.015.067-.045.014-.044.014-.081 0-.111a.92.92 0 01-.199-.798.874.874 0 01.509-.666l.199-.089a1.504 1.504 0 011.04-.111c.369.089.678.274.929.555a70.06 70.06 0 011.815 2.307c.206.266.273.569.199.91-.074.34-.266.584-.576.732l-.177.088a1.321 1.321 0 01-.951.133 1.377 1.377 0 01-.819-.51.34.34 0 00-.288-.155l-5.753.155c-.118 0-.177.067-.177.2v3.371c0 .355-.126.658-.377.91-.25.251-.553.377-.907.377h-.531c-.354 0-.656-.133-.907-.399a1.216 1.216 0 01-.376-.888v-3.305c0-.118-.067-.177-.2-.177l-7.192.199a1.135 1.135 0 01-.863-.31 1.226 1.226 0 01-.354-.843 1.048 1.048 0 01.31-.821c.236-.222.509-.34.819-.355l4.536-.111c.045 0 .163-.059.354-.177l.045-.045c.074-.029.081-.074.022-.133a73.627 73.627 0 00-3.142-2.462h-.023c-.014 0-.022-.007-.022-.022-.073-.074-.155-.082-.243-.022a1.286 1.286 0 01-.73.222h-.155c-.354 0-.657-.126-.907-.378a1.314 1.314 0 01-.377-.931v-3.239c0-.355.126-.658.377-.909a1.28 1.28 0 01.907-.377h6.639c.132 0 .199-.067.199-.2v-.976c0-.133-.067-.2-.199-.2h-7.259zm7.413 3.572h-5.156c-.132 0-.199.066-.199.199v1.265c0 .044.022.081.067.111.044.014.081.007.11-.023.649-.369 1.254-.332 1.815.111.044.03.103.082.177.156.088.074.155.125.199.155.118.089.221.096.31.022.9-.591 1.8-1.213 2.7-1.863.029-.03.037-.059.022-.089 0-.03-.015-.045-.045-.045v.001zm-3.939 8.828c.295-.177.62-.236.974-.177.369.044.664.207.885.488.207.236.288.517.244.843a.968.968 0 01-.465.732 40.988 40.988 0 01-3.496 1.93 1.578 1.578 0 01-1.063.111 1.497 1.497 0 01-.885-.555l-.088-.089a.924.924 0 01-.199-.843c.073-.325.258-.547.553-.665a44.006 44.006 0 003.541-1.775h-.001zm14.65 1.73c.28.148.457.392.531.733.074.34.008.643-.199.909l-.044.066a1.455 1.455 0 01-.885.533 1.354 1.354 0 01-1.018-.178 250.114 250.114 0 00-3.718-2.018 1.002 1.002 0 01-.531-.666.96.96 0 01.177-.843c.206-.281.472-.465.796-.554a1.25 1.25 0 01.952.066 102.03 102.03 0 013.939 1.952z"/></g><defs><clipPath id="clip0"><path fill="#fff" transform="translate(197 34)" d="M0 0h586v130H0z"/></clipPath></defs></svg>