<svg xmlns="http://www.w3.org/2000/svg" width="1200" height="630" fill="none"><path fill="#FEFEFE" d="M0 0h1200v630H0z"/><g fill="#4C7ABE" clip-path="url(#a)"><path d="M951.382 561.965c-2.751-.8-4.757-1.799-6.017-2.999-1.239-1.221-1.858-2.705-1.858-4.452 0-1.937.724-3.484 2.173-4.642 1.449-1.179 3.455-1.768 6.017-1.768 1.911 0 3.8.295 5.669.884.504.147.861.453 1.071.916.21.463.242.958.095 1.484-.105.463-.378.8-.819 1.01-.42.19-.851.2-1.292.032-1.491-.527-3.034-.779-4.63-.758-1.197 0-2.121.263-2.772.789-.63.506-.945 1.19-.945 2.053 0 1.536 1.103 2.61 3.308 3.22 3.002.842 5.123 1.874 6.362 3.095 1.239 1.199 1.859 2.757 1.859 4.673 0 2.21-.735 3.904-2.205 5.083-1.449 1.179-3.56 1.768-6.331 1.768-2.016 0-4.011-.421-5.985-1.263-.504-.21-.851-.557-1.04-1.042-.189-.484-.189-.999 0-1.547l.032-.126c.147-.421.43-.716.85-.884.441-.169.861-.137 1.26.095 1.617.778 3.276 1.168 4.977 1.168 1.26 0 2.216-.274 2.866-.821.672-.568 1.008-1.358 1.008-2.368 0-.905-.262-1.632-.787-2.179-.525-.547-1.48-1.021-2.866-1.421ZM965.556 572.038c-.504 0-.935-.179-1.292-.537-.357-.379-.535-.811-.535-1.295V549.62c0-.506.178-.937.535-1.295.378-.358.809-.537 1.292-.537h.535c.504 0 .935.19 1.292.569.357.358.535.779.535 1.263v7.735c0 .021.011.032.032.032s.042-.011.063-.032c1.407-1.641 3.118-2.462 5.134-2.462 1.932 0 3.35.6 4.253 1.799.924 1.2 1.386 3.158 1.386 5.873v7.641c0 .506-.189.937-.567 1.295-.357.358-.777.537-1.26.537h-.504c-.504 0-.935-.179-1.292-.537-.336-.379-.504-.811-.504-1.295v-7.23c0-1.853-.22-3.105-.661-3.758-.42-.652-1.187-.978-2.3-.978-1.008 0-1.89.505-2.646 1.515-.756.989-1.134 2.095-1.134 3.315v7.136c0 .506-.189.937-.567 1.295-.357.358-.777.537-1.26.537h-.535ZM985.873 551.672c-.504 0-.945-.179-1.323-.537-.357-.379-.535-.81-.535-1.294v-.221c0-.506.178-.937.535-1.295.378-.358.819-.537 1.323-.537h.756c.504 0 .935.19 1.292.569.378.358.567.779.567 1.263v.221c0 .505-.189.936-.567 1.294-.357.358-.788.537-1.292.537h-.756Zm0 20.366c-.504 0-.945-.179-1.323-.537-.357-.379-.535-.811-.535-1.295v-13.135c0-.505.178-.936.535-1.294.378-.358.819-.537 1.323-.537h.756c.504 0 .935.179 1.292.537.378.358.567.789.567 1.294v13.135c0 .505-.189.937-.567 1.295-.357.358-.788.537-1.292.537h-.756ZM995.701 572.038c-.504 0-.935-.179-1.292-.537-.336-.379-.504-.811-.504-1.295v-13.135c0-.505.168-.936.504-1.294.357-.358.788-.537 1.292-.537h.283c.525 0 .966.179 1.323.537.357.336.546.768.567 1.294l.032.474c0 .021.01.031.031.031.042 0 .063-.01.063-.031.651-.821 1.439-1.463 2.36-1.926.95-.484 1.92-.726 2.93-.726 1.93 0 3.35.599 4.25 1.799.93 1.2 1.39 3.158 1.39 5.873v7.641c0 .505-.18.937-.54 1.295-.35.358-.78.537-1.29.537h-.47c-.5 0-.93-.179-1.29-.537-.36-.379-.54-.811-.54-1.295v-7.23c0-1.853-.22-3.105-.66-3.758-.42-.652-1.18-.979-2.3-.979-.94 0-1.8.485-2.58 1.453-.777.968-1.165 2.094-1.165 3.378v7.136c0 .505-.189.937-.567 1.295-.357.358-.788.537-1.292.537h-.535ZM1016.9 571.785l-5.51-14.84c-.17-.4-.13-.779.12-1.137.25-.379.61-.568 1.07-.568h.95c.54 0 1.03.158 1.45.474.44.315.74.736.91 1.263l3.15 10.609c0 .021.01.031.03.031.04 0 .07-.01.07-.031l3.59-10.609c.16-.527.47-.948.91-1.263.44-.316.94-.474 1.51-.474h.79c.42 0 .76.179 1.01.537.25.358.29.747.12 1.168l-8.03 20.492c-.19.526-.51.937-.98 1.231-.46.316-.95.474-1.48.474h-.78c-.47 0-.82-.179-1.07-.537-.24-.358-.26-.737-.07-1.136l2.24-5.179c.02-.084.03-.168.03-.252 0-.085-.01-.169-.03-.253ZM1035.07 552.114v7.799c0 .147.09.242.26.284.82.105 1.61.158 2.39.158 1.74 0 3.07-.379 3.97-1.137.92-.758 1.38-1.852 1.38-3.283 0-2.863-1.78-4.295-5.35-4.295-.78 0-1.57.053-2.39.158-.17.042-.26.148-.26.316Zm-2.64 19.924c-.51 0-.94-.179-1.29-.537-.34-.379-.51-.811-.51-1.295v-19.765c0-.527.17-.99.51-1.39.35-.421.78-.652 1.29-.694 1.83-.169 3.59-.253 5.29-.253 3.23 0 5.65.642 7.24 1.926 1.62 1.284 2.43 3.147 2.43 5.589 0 2.694-.78 4.736-2.33 6.125-1.55 1.368-3.86 2.053-6.93 2.053-.71 0-1.65-.043-2.8-.127-.17 0-.26.084-.26.253v6.283c0 .505-.18.937-.56 1.295-.36.358-.78.537-1.26.537h-.82ZM1060.15 559.534c-.74-.947-1.75-1.421-3.03-1.421-1.28 0-2.29.474-3.02 1.421-.74.926-1.1 2.294-1.1 4.105 0 1.81.36 3.189 1.1 4.136.73.926 1.74 1.389 3.02 1.389s2.29-.463 3.03-1.389c.73-.947 1.1-2.326 1.1-4.136 0-1.811-.37-3.179-1.1-4.105Zm3.05 10.483c-1.49 1.558-3.51 2.336-6.08 2.336-2.56 0-4.58-.778-6.08-2.336-1.49-1.579-2.23-3.705-2.23-6.378 0-2.674.74-4.8 2.23-6.378 1.5-1.579 3.52-2.368 6.08-2.368 2.57 0 4.59.789 6.08 2.368 1.49 1.578 2.24 3.704 2.24 6.378 0 2.673-.75 4.799-2.24 6.378ZM1076.12 557.955c-1.14 0-2.06.348-2.77 1.042-.7.695-1.09 1.705-1.17 3.031 0 .169.08.253.25.253h7.31c.17 0 .25-.084.25-.253-.06-1.305-.44-2.305-1.13-2.999-.67-.716-1.59-1.074-2.74-1.074Zm.38 14.398c-2.55 0-4.6-.778-6.18-2.336-1.57-1.579-2.36-3.705-2.36-6.378 0-2.716.72-4.852 2.17-6.41 1.47-1.558 3.46-2.336 5.96-2.336 2.45 0 4.37.736 5.76 2.21 1.41 1.452 2.12 3.536 2.14 6.252 0 .526-.2.957-.6 1.294-.37.337-.83.505-1.35.505h-9.61c-.21 0-.29.095-.25.285.15 1.178.65 2.115 1.51 2.81.86.694 1.93 1.042 3.22 1.042 1.09 0 2.19-.19 3.3-.569.38-.147.76-.137 1.14.032.4.168.66.442.78.821.15.421.12.842-.09 1.263-.19.4-.48.673-.88.821-1.43.463-2.98.694-4.66.694ZM1089.28 572.038c-.5 0-.93-.179-1.29-.537-.35-.379-.53-.811-.53-1.295v-13.135c0-.505.18-.936.53-1.294.36-.358.79-.537 1.29-.537h.19c.53 0 .97.179 1.33.537.37.336.57.768.59 1.294l.04.379c0 .021.01.032.03.032.04 0 .06-.011.06-.032 1.24-1.705 2.66-2.557 4.25-2.557 1.03 0 1.89.21 2.59.631.69.421 1.28 1.116 1.76 2.084 0 .021.02.032.06.032.02 0 .04-.011.07-.032 1.4-1.81 3.04-2.715 4.91-2.715 1.81 0 3.12.505 3.94 1.515.84 1.011 1.26 2.695 1.26 5.052v8.746c0 .505-.19.937-.57 1.295-.36.358-.79.537-1.29.537h-.38c-.5 0-.93-.179-1.29-.537-.36-.379-.54-.811-.54-1.295v-7.767c0-1.684-.18-2.81-.53-3.379-.36-.589-.99-.884-1.89-.884-.78 0-1.46.411-2.05 1.232-.57.821-.85 1.831-.85 3.031v7.767c0 .505-.19.937-.57 1.295-.35.358-.78.537-1.29.537h-.38c-.5 0-.93-.179-1.29-.537-.35-.379-.53-.811-.53-1.295v-7.767c0-1.684-.18-2.81-.54-3.379-.36-.589-.99-.884-1.89-.884-.78 0-1.46.411-2.05 1.232-.56.821-.85 1.831-.85 3.031v7.767c0 .505-.18.937-.53 1.295-.36.358-.79.537-1.29.537h-.48ZM1120.59 565.249c-2.37-.379-4.07-1.01-5.1-1.894-1.01-.885-1.51-2.084-1.51-3.6 0-1.494.59-2.673 1.76-3.536 1.18-.884 2.88-1.326 5.11-1.326 1.68 0 3.27.231 4.78.694.42.127.74.4.95.821.21.421.26.853.16 1.295-.11.4-.35.694-.73.884-.35.189-.74.221-1.16.095-1.22-.4-2.48-.6-3.78-.6-1.98 0-2.96.578-2.96 1.736 0 .569.21 1 .63 1.295.44.294 1.19.515 2.26.663 2.4.337 4.11.958 5.14 1.863 1.03.905 1.54 2.147 1.54 3.726 0 1.557-.6 2.778-1.79 3.662-1.18.884-2.86 1.326-5.04 1.326-2.02 0-3.84-.305-5.45-.915-.47-.169-.79-.474-.98-.916-.17-.442-.2-.895-.09-1.358.08-.4.31-.684.69-.852.38-.19.77-.2 1.16-.032 1.43.59 2.91.884 4.45.884 1.86 0 2.8-.631 2.8-1.894 0-.59-.2-1.021-.6-1.295-.38-.294-1.12-.537-2.24-.726ZM1047.09 579.938c.11.019.2.075.26.17.06.095.08.196.06.305-.29 1.362-.83 2.375-1.61 3.037-.77.662-1.91 1.081-3.41 1.256-.12.014-.22-.015-.31-.086s-.14-.163-.16-.276l-.02-.114c-.01-.109.01-.206.08-.291.06-.085.15-.135.26-.149 1.3-.151 2.27-.492 2.91-1.021.64-.53 1.09-1.37 1.34-2.519.02-.114.08-.201.18-.263.09-.066.2-.089.31-.07l.11.021Zm-5.14 1.617c-.11-.018-.2-.073-.26-.163-.07-.094-.09-.196-.06-.305l.01-.05c.01-.113.07-.203.17-.269.11-.071.21-.092.33-.064.27.047.79.149 1.58.305.11.019.19.076.25.17.06.095.08.199.06.313l-.01.049c-.02.114-.08.204-.18.27-.09.061-.19.08-.3.057-.92-.185-1.45-.289-1.59-.313Zm2.17-2.312c.11.018.2.078.26.177.06.095.08.196.06.305l-.02.071c-.01.113-.07.201-.17.262-.09.062-.19.081-.3.057-.6-.123-1.15-.227-1.66-.312-.11-.019-.2-.073-.27-.163-.06-.095-.08-.199-.06-.312l.02-.057c.01-.114.07-.203.17-.27.09-.066.2-.09.31-.071.48.081 1.04.185 1.66.313ZM1049.09 581.889l-.01-.021c-.02-.114 0-.218.06-.313.06-.094.15-.151.27-.17l.82-.17c.04-.01.06-.033.05-.071l-.12-.66c-.01-.113.01-.215.08-.305.06-.095.15-.151.26-.17l.1-.022c.12-.018.22.008.31.078.09.067.15.154.17.263l.11.631c.01.043.03.062.07.057l2.35-.475c.11-.019.22.005.31.071.09.061.14.146.17.255v.014c.05.289.04.559-.04.809-.18.535-.46 1.015-.83 1.44-.07.086-.17.133-.29.142-.12.005-.23-.028-.32-.099l-.04-.035c-.08-.067-.13-.157-.13-.27-.01-.114.02-.211.1-.291.27-.336.49-.683.64-1.043 0-.009 0-.019-.01-.028-.01-.014-.02-.019-.03-.014l-1.74.347c-.04.01-.06.036-.05.078l.44 2.405c.01.114-.01.216-.08.305-.06.09-.15.145-.26.164l-.1.021c-.12.019-.22-.005-.31-.071-.09-.066-.15-.156-.17-.27l-.42-2.376c-.01-.038-.04-.052-.07-.043l-.82.163c-.11.019-.21-.002-.3-.064-.09-.061-.15-.149-.17-.262ZM1056.86 579.278h4.02c.11 0 .21.04.28.12.08.081.12.175.12.284v.128c0 .113-.04.21-.12.291-.08.08-.17.12-.28.12h-4.02c-.11 0-.21-.04-.29-.12-.08-.085-.11-.182-.11-.291v-.128c0-.113.03-.208.11-.284.08-.08.18-.12.29-.12Zm-.5 5.129c-.12 0-.21-.04-.29-.12-.08-.081-.12-.178-.12-.291v-.121c0-.113.04-.21.12-.291.08-.08.17-.12.29-.12h5.02c.12 0 .21.042.29.127.08.081.12.175.12.284v.121c0 .113-.04.21-.12.291-.08.08-.17.12-.29.12h-5.02ZM1063.6 580.08c-.11 0-.21-.04-.29-.121-.08-.085-.12-.184-.12-.298v-.071c0-.113.04-.21.12-.291.08-.08.18-.12.29-.12h5.03c.11 0 .21.04.29.12.08.081.12.178.12.291v.49c-.41 1.267-1.32 2.291-2.74 3.072-.03.019-.04.045-.01.078.06.094.16.234.27.418.13.18.21.31.27.391.06.094.08.196.05.305-.02.104-.08.184-.18.241l-.16.106c-.09.062-.2.081-.31.057-.11-.024-.2-.085-.27-.184-.55-.809-1.11-1.618-1.7-2.427-.06-.09-.09-.189-.07-.298.03-.109.08-.196.17-.262l.16-.1c.09-.066.2-.087.31-.063.11.018.2.073.28.163.05.071.22.317.53.738.02.033.05.04.09.021.52-.274.97-.606 1.36-.993.4-.393.68-.795.87-1.206.02-.038 0-.057-.04-.057h-4.32ZM1070.64 584.336l-.04-.078c-.05-.094-.06-.196-.02-.305.03-.108.09-.189.19-.241 1.75-.941 3.02-2.15 3.81-3.625v-.036c-.01-.019-.03-.028-.04-.028h-3.08c-.11 0-.21-.04-.3-.121-.08-.08-.12-.177-.12-.291v-.071c0-.113.04-.21.12-.29.09-.081.19-.121.3-.121h3.81c.11 0 .21.04.29.121.08.08.13.177.13.29v.071c0 .289-.06.554-.19.795-.3.596-.7 1.164-1.18 1.703-.03.028-.03.059 0 .092.63.582 1.2 1.111 1.69 1.589.08.081.12.178.12.291 0 .109-.04.206-.11.291l-.09.078c-.08.076-.18.114-.29.114-.12 0-.21-.041-.29-.121-.61-.601-1.17-1.128-1.67-1.582-.03-.019-.06-.017-.1.007-.71.653-1.5 1.201-2.37 1.646-.1.052-.21.061-.32.028-.12-.033-.2-.102-.25-.206ZM1077.36 582.641l-.02-.043c-.06-.094-.07-.196-.03-.305.04-.109.11-.189.21-.241.99-.511 1.75-1.154 2.27-1.93.01-.028 0-.042-.03-.042h-1.99c-.12 0-.21-.041-.3-.121-.08-.085-.12-.182-.12-.291 0-.113.04-.21.12-.291.09-.085.18-.128.3-.128h2.28c.05 0 .07-.018.07-.056v-.327c0-.113.04-.21.12-.291.08-.085.18-.127.29-.127h.17c.11 0 .21.042.29.127.08.081.12.178.12.291v.327c0 .038.02.056.06.056h2.29c.11 0 .21.043.29.128.08.081.13.178.13.291 0 .109-.05.206-.13.291-.08.08-.18.121-.29.121h-2.1c-.05 0-.06.018-.05.056.14.648.32 1.218.55 1.71.02.033.04.036.07.007.35-.293.68-.591.98-.894.08-.08.17-.12.28-.12.11 0 .2.038.28.113l.04.036c.08.075.12.172.12.291 0 .113-.03.21-.11.29-.36.369-.75.717-1.15 1.043-.03.024-.04.052-.02.086.36.515.83.969 1.39 1.362.09.061.15.149.17.262.03.109.02.213-.04.312l-.04.05c-.06.095-.15.159-.26.192-.11.033-.22.016-.31-.05-.64-.402-1.2-.965-1.68-1.689-.49-.723-.83-1.541-1.05-2.454-.02-.038-.03-.045-.05-.022-.21.322-.46.618-.73.887-.03.029-.04.064-.04.107v2.227c0 .043.02.06.05.05.43-.076.92-.18 1.47-.312.09-.024.18-.007.27.05.08.056.13.134.15.234.01.113-.01.217-.07.312-.05.09-.13.147-.24.17-1.05.27-2.11.466-3.18.589-.11.01-.21-.021-.3-.092-.09-.066-.13-.154-.15-.263-.01-.108.01-.205.08-.291.07-.085.15-.132.27-.141.13-.015.34-.041.62-.078.04-.01.06-.034.06-.071v-1.625c0-.014 0-.024-.02-.029-.01-.009-.02-.009-.02 0-.25.161-.51.308-.78.44-.1.052-.21.062-.31.029-.11-.038-.19-.109-.25-.213ZM1090.93 584.287c.09.033.16.099.2.198.04.1.04.194-.01.284l-.02.029c-.05.108-.14.184-.26.227-.11.047-.22.052-.33.014-.67-.232-1.26-.572-1.76-1.022-.02-.019-.03-.012-.03.021l.01.142c.02.119-.01.223-.08.313-.07.094-.16.153-.27.177-.94.175-1.93.31-2.95.404-.11.01-.21-.019-.29-.085-.08-.066-.13-.154-.15-.262-.01-.109.02-.201.08-.277.07-.08.16-.125.26-.135.33-.028.57-.054.71-.078.04 0 .06-.021.06-.064v-.489c0-.033-.02-.045-.06-.036-.25.095-.58.199-.97.312-.11.029-.22.017-.32-.035-.1-.052-.17-.135-.21-.248-.04-.095-.03-.19.02-.284.05-.095.13-.152.24-.17.61-.138 1.14-.294 1.56-.469.01-.009.01-.016 0-.021h-1.39c-.11 0-.2-.035-.27-.106s-.1-.159-.1-.263c0-.109.03-.201.1-.277.08-.075.17-.113.27-.113h2.42c.04 0 .06-.017.06-.05 0-.09.03-.17.1-.241.07-.076.15-.114.25-.114h.29c.1 0 .18.036.25.107.07.071.1.154.1.248 0 .033.02.05.05.05h2.26c.11 0 .2.038.27.113.07.076.1.168.1.277 0 .104-.03.192-.11.263-.07.071-.16.106-.26.106h-.39c-.01 0-.01.005-.01.014v.014l.21.128c.09.052.15.13.16.234.02.1-.01.182-.09.249-.17.156-.37.316-.58.482-.03.019-.03.038 0 .057.31.161.6.286.88.376Zm-2.4-.412c.03-.009.04-.028.01-.056-.32-.327-.57-.677-.75-1.05-.01-.024-.03-.036-.06-.036-.02 0-.04.007-.06.021-.17.133-.37.265-.58.398-.03.019-.05.049-.05.092v.816c0 .042.02.059.06.049.42-.061.9-.139 1.43-.234Zm.75-.518c.02.024.05.024.08 0 .27-.203.5-.397.69-.581.01-.005.01-.012 0-.022-.01-.014-.01-.021-.02-.021h-1.22c-.04 0-.05.017-.02.05.13.194.29.385.49.574Zm-4.19-1.88c-.11.033-.22.026-.33-.021-.1-.047-.18-.128-.22-.241-.04-.104-.03-.204.02-.298.04-.1.12-.166.23-.199.53-.165.95-.303 1.24-.411.04-.015.05-.043.05-.086v-.432c0-.01 0-.017-.02-.022-.01-.009-.02-.011-.03-.007l-.21.192c-.09.071-.19.102-.3.092-.12-.009-.21-.054-.3-.135-.13-.137-.26-.269-.4-.397-.07-.076-.11-.168-.11-.277.01-.113.05-.203.13-.269l.02-.014c.09-.076.19-.114.31-.114s.22.04.3.121c.22.203.41.399.58.588.02.024.03.017.03-.021v-.567c0-.114.04-.211.12-.291.09-.081.19-.121.29-.121h.09c.11 0 .21.04.29.121.08.08.12.177.12.291v2.412c0 .113-.04.21-.13.291-.08.08-.17.12-.28.12h-.09c-.11 0-.21-.04-.29-.12-.08-.085-.12-.182-.12-.291v-.199c0-.042-.01-.054-.05-.035-.35.137-.67.25-.94.34Zm4.19-2.93c.11 0 .21.04.29.121.08.08.12.177.12.291v.092c0 .042.02.064.05.064h.98c.11 0 .21.04.28.12.08.081.12.175.12.284 0 .104-.04.196-.12.277-.07.08-.17.12-.28.12h-.98c-.03 0-.05.022-.05.064v.639c0 .038.02.059.05.064h.89c.11 0 .19.035.26.106s.11.161.11.27c0 .104-.04.191-.11.262-.07.071-.15.107-.26.107h-2.85c-.11 0-.2-.036-.27-.107-.07-.071-.11-.158-.11-.262 0-.109.04-.199.11-.27.07-.071.16-.106.27-.106h.85c.04 0 .07-.022.07-.064v-.639c0-.042-.03-.064-.07-.064h-1.02c-.12 0-.21-.04-.29-.12-.07-.081-.11-.173-.11-.277 0-.109.04-.203.11-.284.08-.08.18-.12.29-.12h1.02c.04 0 .07-.022.07-.064v-.092c0-.114.04-.211.12-.291.08-.081.18-.121.29-.121h.17ZM1092.18 583.975c-.11-.043-.18-.116-.21-.22-.04-.109-.03-.213.02-.312.28-.587.54-1.183.79-1.788.04-.109.12-.187.23-.234.1-.048.21-.055.31-.022l.11.036c.11.033.19.099.23.198.05.1.05.201.01.306-.23.567-.5 1.189-.82 1.865-.05.109-.13.185-.24.227-.1.038-.21.036-.32-.007l-.11-.049Zm5.59.085c-.11.038-.22.035-.32-.007-.1-.048-.18-.123-.22-.227-.17-.426-.45-1.055-.82-1.887-.04-.105-.04-.209 0-.313.05-.104.12-.175.22-.213l.09-.035c.11-.043.22-.043.33 0 .11.038.18.111.23.22.27.582.55 1.211.84 1.887.04.109.04.215-.01.319-.04.1-.12.171-.23.213l-.11.043Zm-.53-4.349c.09.09.2.135.33.135s.24-.045.33-.135c.1-.095.15-.206.15-.334 0-.132-.05-.243-.15-.333-.09-.095-.2-.142-.33-.142s-.24.047-.33.142c-.09.09-.14.201-.14.333 0 .128.05.239.14.334Zm-.43-1.107c.21-.213.46-.319.76-.319s.56.106.77.319c.22.213.32.468.32.766 0 .208-.05.4-.15.575-.11.17-.25.3-.43.39-.03.014-.05.045-.05.092 0 .067-.02.126-.08.178-.05.052-.11.078-.17.078h-2.11c-.03 0-.05.021-.05.064v3.036c0 .483-.06.783-.18.901-.12.123-.41.185-.89.185-.21 0-.46-.015-.76-.043-.11-.009-.2-.061-.27-.156-.08-.09-.11-.189-.1-.298v-.035c.01-.114.06-.206.15-.277.09-.076.19-.109.31-.1.24.019.39.029.45.029.14 0 .22-.014.25-.043.02-.033.03-.132.03-.298v-2.901c0-.043-.02-.064-.06-.064h-2.1c-.12 0-.21-.041-.29-.121-.08-.085-.12-.184-.12-.298v-.042c0-.114.04-.211.12-.291.08-.081.18-.121.29-.121h2.1c.04 0 .06-.024.06-.071v-.638c0-.114.04-.209.12-.284.08-.081.18-.121.29-.121h.18c.11 0 .21.04.29.121.09.08.13.175.13.284v.638c0 .043.02.066.05.071h.85c.03 0 .05-.019.04-.057-.05-.137-.07-.265-.07-.383 0-.298.1-.553.32-.766ZM1099.91 584.407c-.11 0-.21-.04-.29-.12-.07-.081-.11-.178-.11-.291v-.05c0-.113.04-.21.11-.291.08-.08.18-.12.29-.12h1.87c.05 0 .07-.019.07-.057v-3.271c0-.038-.02-.056-.07-.056h-1.65c-.11 0-.21-.041-.29-.121-.08-.085-.12-.185-.12-.298v-.05c0-.113.04-.208.12-.284.08-.08.18-.12.29-.12h4.45c.11 0 .21.04.29.12.08.081.12.175.12.284v.05c0 .113-.04.213-.12.298-.08.08-.18.121-.29.121h-1.65c-.04 0-.06.018-.06.056v3.271c0 .038.02.057.06.057h1.87c.11 0 .21.042.28.127.08.081.12.175.12.284v.05c0 .113-.04.21-.12.291-.07.08-.17.12-.28.12h-4.89ZM1106.91 584.514c-.12.005-.22-.033-.3-.114-.09-.08-.13-.175-.13-.283v-.043c-.01-.113.03-.213.1-.298.08-.085.18-.132.29-.142.03-.004.07-.007.13-.007s.1-.002.13-.007c.04 0 .07-.019.08-.057v-.007c.49-1.324.93-2.75 1.3-4.278.03-.113.1-.201.19-.262.1-.062.21-.081.32-.057l.18.028c.11.024.2.083.25.178.07.094.08.196.06.305-.33 1.39-.73 2.729-1.2 4.015-.01.038 0 .057.04.057.93-.076 1.88-.184 2.85-.326.05-.01.06-.033.04-.071-.26-.563-.45-.975-.57-1.235-.06-.104-.07-.208-.03-.312.03-.109.11-.187.21-.234l.14-.057c.11-.047.22-.052.32-.014s.18.106.23.206c.36.747.75 1.577 1.16 2.49.04.104.05.208 0 .312-.04.099-.11.17-.22.213l-.15.064c-.11.042-.22.042-.32 0-.1-.043-.18-.116-.23-.22 0-.005-.02-.04-.05-.107-.02-.066-.05-.115-.06-.149-.01-.042-.04-.059-.08-.049-1.64.241-3.2.395-4.68.461ZM1113.58 583.379l-.08-.185c-.12-.241-.11-.484.02-.73.33-.582.56-1.214.7-1.895.01-.038-.01-.056-.05-.056h-.29c-.11 0-.2-.041-.28-.121-.08-.08-.12-.173-.12-.277 0-.109.04-.203.12-.284.08-.08.17-.12.28-.12h.35c.04 0 .06-.021.07-.064v-.688c0-.114.03-.211.11-.291.08-.08.18-.121.29-.121h.05c.11 0 .21.041.29.121.08.08.12.177.12.291v.688c0 .043.02.064.06.064h.11c.15 0 .26.064.34.191.02.034.04.036.07.007.03-.033.06-.056.08-.07.48-.298.92-.656 1.35-1.072.2-.194.43-.291.69-.291h.08c.26 0 .49.097.69.291.43.412.88.769 1.35 1.072.09.061.16.149.2.262.04.109.04.22-.01.333l-.01.036c-.05.095-.12.161-.22.199-.1.033-.2.019-.29-.043-.17-.109-.31-.206-.41-.291-.03-.019-.05-.014-.07.014-.06.138-.17.206-.32.206h-.42c-.04 0-.06.021-.06.064v.241c0 .038.02.057.06.057h1.05c.11 0 .2.043.28.128.08.08.12.177.12.291v1.426c0 .113-.04.21-.12.291-.08.08-.17.12-.28.12h-.91c-.01 0-.02.007-.03.021-.01.015-.01.026 0 .036.23.397.7.714 1.4.951.1.037.17.106.22.205.04.095.05.192 0 .291l-.02.057c-.05.109-.13.184-.24.227-.1.047-.21.05-.32.007-.69-.288-1.21-.688-1.58-1.199-.03-.033-.05-.035-.08-.007-.4.52-.97.925-1.71 1.213-.1.043-.21.038-.31-.014-.11-.047-.18-.123-.23-.227l-.03-.057c-.04-.104-.04-.203.01-.298.05-.099.12-.168.23-.206.69-.241 1.14-.555 1.37-.943.01-.01.01-.021 0-.036 0-.014-.01-.021-.02-.021h-.9c-.12 0-.21-.04-.29-.121-.08-.08-.12-.177-.12-.29v-.1c0-.009 0-.016-.01-.021-.01-.005-.02-.002-.03.007-.01.014-.03.031-.06.05-.07.057-.16.073-.25.049-.09-.028-.15-.085-.18-.17-.01-.019-.08-.196-.21-.532-.01 0-.02.005-.02.014v2.668c0 .113-.04.208-.12.284-.08.08-.18.12-.29.12h-.05c-.11 0-.21-.04-.29-.12-.08-.081-.11-.175-.11-.284v-2.121c-.01-.005-.02-.007-.03-.007-.09.279-.2.541-.32.787-.04.076-.1.114-.18.114-.09 0-.15-.041-.19-.121Zm3.15-.944c0 .038.02.059.06.064h.58c.04 0 .06-.021.06-.064v-.752c0-.038-.02-.057-.06-.057h-.58c-.04 0-.06.019-.06.057v.752Zm2.26-.809h-.56c-.04 0-.06.019-.06.057v.752c0 .038.02.059.06.064h.56c.04 0 .06-.021.06-.064v-.752c0-.038-.02-.057-.06-.057Zm-1.13-2.497c-.25.279-.47.501-.64.667-.01.009-.01.019-.01.028.01.005.01.007.02.007h1.34c.01 0 .02-.002.02-.007.01-.009 0-.019 0-.028-.25-.227-.46-.447-.64-.66-.03-.028-.06-.031-.09-.007Zm-2.56 1.384c-.01 0-.02.007-.03.021-.01.009-.01.019 0 .028.18.416.39.885.63 1.405 0 .005.01.007.01.007.01 0 .01-.005.01-.014v-.625c0-.113.04-.21.12-.29.08-.086.18-.128.29-.128h1.05c.03 0 .05-.019.05-.057v-.241c0-.043-.02-.064-.05-.064h-.42c-.16 0-.27-.069-.33-.206-.01-.028-.03-.033-.06-.014-.03.028-.17.123-.41.284-.08.061-.18.078-.29.05-.11-.034-.18-.1-.22-.199l-.01-.028c-.01-.029-.03-.034-.06-.015-.07.057-.16.085-.25.085l-.03.001ZM1121.22 579.682c-.11 0-.2-.037-.28-.113-.07-.076-.1-.166-.1-.27 0-.109.03-.198.11-.269.07-.076.16-.114.27-.114h2.32c.04 0 .06-.024.06-.071v-.035c0-.114.04-.208.12-.284.08-.081.18-.121.29-.121h.17c.12 0 .21.04.29.121.08.08.12.175.12.284v.035c0 .043.03.066.07.071h2.32c.11 0 .2.038.27.114.07.071.11.16.11.269 0 .104-.04.194-.11.27-.08.076-.17.113-.27.113h-2.32c-.04 0-.07.022-.07.064v.312c0 .038.03.059.07.064h2.12c.11 0 .21.04.29.121.08.08.12.177.12.291v.965c0 .113-.04.212-.13.298-.08.08-.17.12-.28.12h-.05c-.11 0-.21-.04-.29-.12-.08-.086-.12-.185-.12-.298v-.611c0-.042-.02-.063-.06-.063h-1.86c-.01 0-.02.004-.03.014v.028c.06.071.08.154.07.249-.01.089-.05.165-.13.227-.23.179-.54.39-.92.631-.03.019-.03.045 0 .078.1.076.16.135.21.177.03.024.06.024.1 0 .61-.378 1.15-.747 1.63-1.106.09-.067.19-.095.31-.085.12.004.23.044.31.12l.02.014c.08.071.12.161.11.27 0 .109-.05.194-.14.255-.5.365-1.04.719-1.62 1.065-.01.004-.01.011-.01.021 0 .009.01.014.02.014l1.6-.043c.01 0 .02-.004.02-.014.01-.014.01-.026 0-.035-.06-.076-.08-.161-.06-.256.02-.099.07-.17.16-.212l.07-.029c.1-.052.22-.064.33-.035.12.028.22.087.3.177.18.218.37.464.58.738.06.085.08.182.06.291-.02.109-.08.187-.18.234l-.06.028c-.1.052-.2.067-.31.043-.1-.024-.19-.078-.26-.163-.02-.033-.05-.05-.09-.05l-1.84.05c-.04 0-.06.021-.06.064v1.078c0 .113-.04.21-.12.291-.08.08-.17.12-.29.12h-.17c-.11 0-.21-.042-.29-.127-.08-.081-.12-.175-.12-.284v-1.057c0-.038-.02-.057-.06-.057l-2.3.064c-.11.005-.2-.029-.28-.099-.07-.071-.11-.161-.11-.27 0-.104.03-.192.1-.263.07-.071.16-.108.26-.113l1.45-.036c.02 0 .05-.019.12-.056l.01-.015c.02-.009.03-.023.01-.042-.4-.322-.73-.584-1.01-.788h-.01v-.007c-.03-.023-.05-.026-.08-.007-.07.048-.15.071-.23.071h-.05c-.12 0-.21-.04-.29-.12-.08-.086-.12-.185-.12-.298v-1.036c0-.114.04-.211.12-.291.08-.081.18-.121.29-.121h2.12c.04 0 .06-.021.06-.064v-.312c0-.042-.02-.064-.06-.064h-2.32Zm2.37 1.143h-1.65c-.04 0-.06.021-.06.063v.405c0 .014 0 .026.02.035.01.005.02.003.03-.007.21-.118.4-.106.58.036.02.009.04.026.06.049.03.024.05.041.06.05.04.028.07.031.1.007.29-.189.58-.388.87-.596.01-.009.01-.019 0-.028 0-.01 0-.014-.01-.014Zm-1.26 2.823c.09-.056.2-.075.31-.056.12.014.21.066.28.156.07.075.1.165.08.269-.01.104-.06.182-.15.234-.32.204-.7.41-1.12.618-.11.052-.22.063-.33.035-.12-.024-.21-.083-.29-.177l-.03-.029c-.06-.08-.08-.17-.06-.269.02-.104.08-.175.18-.213.37-.166.75-.355 1.13-.568Zm4.68.554c.09.047.15.125.17.234.03.109.01.206-.06.291l-.01.021c-.07.09-.17.147-.29.17-.11.024-.22.005-.32-.056-.53-.289-.92-.504-1.19-.646-.09-.047-.15-.118-.17-.213-.02-.099-.01-.189.06-.27.06-.089.15-.149.25-.177.1-.033.21-.026.3.021.5.232.92.44 1.26.625Z"/></g><g fill="#4C7ABE" clip-path="url(#b)"><path d="M930.648 581.483h-33.092c1.9-3.604 5.628-10.963 5.628-10.963 6.038.201 9.057-3.221 6.642-5.836 8.112.164 12.132-4.298 9.832-7.008 2.419.766 5.973.655 9.086-1.043 6.64-3.623 6.239-16.1-5.434-14.49-11.569 1.595-23.661 29.582-29.114 39.629-.79 1.454-.328 2.503.472 2.672.296.253.677.414 1.097.414h34.883c.932 0 1.689-.756 1.689-1.688 0-.931-.757-1.687-1.689-1.687Z"/><path d="M913.195 572.98c-.931 0-1.688.756-1.688 1.688 0 .932.757 1.687 1.688 1.687h17.443c.931 0 1.687-.755 1.687-1.687s-.756-1.688-1.687-1.688h-17.443Z"/></g><path stroke="#4C7ABE" stroke-linecap="round" stroke-width="2" d="M72 564h778M72 63l1055 .0001"/><defs><clipPath id="a"><path fill="#fff" d="M941.575 545.518H1129v41.5789H941.575z"/></clipPath><clipPath id="b"><path fill="#fff" d="M892 542h42.8583v42.8583H892z"/></clipPath></defs></svg>